<?xml version="1.0" encoding="UTF-8" standalone="no"?>
<svg xmlns:svg="http://www.w3.org/2000/svg"
     xmlns="http://www.w3.org/2000/svg" version="1.1"
     width="360" height="185">
    <!-- Created with the Wikimedia parliament diagram creator (http://parliamentdiagram.toolforge.org/parliamentinputform.html) -->
    <g>
        <text x="175" y="175" 
              style="font-size:36px;font-weight:bold;text-align:center;text-anchor:middle;font-family:sans-serif">
            20
        </text>
        <g style="fill:#4165d2; stroke-width:0.00; stroke:#000000" 
           id="0_Democrat"> 
            <title>b'Democrat'</title>            <circle cx="22.23" cy="166.70" r="13.33"/> 
            <circle cx="55.71" cy="166.72" r="13.33"/> 
            <circle cx="89.29" cy="166.76" r="13.33"/> 
            <circle cx="41.73" cy="102.86" r="13.33"/> 
            <circle cx="76.45" cy="109.98" r="13.33"/> 
            <circle cx="120.05" cy="110.66" r="13.33"/> 
            <circle cx="85.81" cy="52.73" r="13.33"/> 
        </g>
        <g style="fill:#e3bb1c; stroke-width:0.00; stroke:#000000" 
           id="1_Other"> 
            <title>b'Other'</title>        </g>
        <g style="fill:#808080; stroke-width:0.00; stroke:#000000" 
           id="2_Vacant"> 
            <title>b'Vacant'</title>        </g>
        <g style="fill:#dc3d3d; stroke-width:0.00; stroke:#000000" 
           id="3_Republican"> 
            <title>b'Republican'</title>            <circle cx="121.38" cy="69.60" r="13.33"/> 
            <circle cx="146.62" cy="25.22" r="13.33"/> 
            <circle cx="180.00" cy="55.00" r="13.33"/> 
            <circle cx="180.00" cy="88.33" r="13.33"/> 
            <circle cx="213.38" cy="25.22" r="13.33"/> 
            <circle cx="238.62" cy="69.60" r="13.33"/> 
            <circle cx="274.19" cy="52.73" r="13.33"/> 
            <circle cx="239.95" cy="110.66" r="13.33"/> 
            <circle cx="283.55" cy="109.98" r="13.33"/> 
            <circle cx="318.27" cy="102.86" r="13.33"/> 
            <circle cx="270.71" cy="166.76" r="13.33"/> 
            <circle cx="304.29" cy="166.72" r="13.33"/> 
            <circle cx="337.77" cy="166.70" r="13.33"/> 
        </g>
    </g>
</svg>
