<?xml version="1.0" encoding="UTF-8" standalone="no"?>
<svg xmlns:svg="http://www.w3.org/2000/svg"
     xmlns="http://www.w3.org/2000/svg" version="1.1"
     width="360" height="185">
    <!-- Created with the Wikimedia parliament diagram creator (http://parliamentdiagram.toolforge.org/parliamentinputform.html) -->
    <g>
        <text x="175" y="175" 
              style="font-size:36px;font-weight:bold;text-align:center;text-anchor:middle;font-family:sans-serif">
            65
        </text>
        <g style="fill:#4165d2; stroke-width:0.00; stroke:#000000" 
           id="0_Democrat"> 
            <title>b'Democrat'</title>            <circle cx="15.19" cy="172.01" r="8.00"/> 
            <circle cx="35.22" cy="172.01" r="8.00"/> 
            <circle cx="55.26" cy="172.01" r="8.00"/> 
            <circle cx="75.30" cy="172.02" r="8.00"/> 
            <circle cx="95.38" cy="172.02" r="8.00"/> 
            <circle cx="19.68" cy="140.98" r="8.00"/> 
            <circle cx="40.32" cy="141.09" r="8.00"/> 
            <circle cx="61.15" cy="141.26" r="8.00"/> 
            <circle cx="82.30" cy="141.54" r="8.00"/> 
            <circle cx="29.96" cy="111.36" r="8.00"/> 
            <circle cx="103.96" cy="142.02" r="8.00"/> 
            <circle cx="51.94" cy="111.99" r="8.00"/> 
            <circle cx="74.51" cy="112.94" r="8.00"/> 
            <circle cx="45.65" cy="84.22" r="8.00"/> 
            <circle cx="97.96" cy="114.47" r="8.00"/> 
            <circle cx="69.54" cy="86.07" r="8.00"/> 
            <circle cx="66.19" cy="60.53" r="8.00"/> 
            <circle cx="94.48" cy="88.83" r="8.00"/> 
            <circle cx="122.79" cy="117.14" r="8.00"/> 
            <circle cx="92.30" cy="64.53" r="8.00"/> 
            <circle cx="120.90" cy="93.21" r="8.00"/> 
            <circle cx="90.84" cy="41.16" r="8.00"/> 
            <circle cx="119.82" cy="70.44" r="8.00"/> 
            <circle cx="119.15" cy="48.38" r="8.00"/> 
            <circle cx="118.71" cy="26.81" r="8.00"/> 
            <circle cx="149.33" cy="100.73" r="8.00"/> 
            <circle cx="149.08" cy="79.66" r="8.00"/> 
            <circle cx="148.94" cy="58.92" r="8.00"/> 
            <circle cx="148.85" cy="38.39" r="8.00"/> 
            <circle cx="148.79" cy="17.98" r="8.00"/> 
            <circle cx="180.00" cy="55.00" r="8.00"/> 
            <circle cx="180.00" cy="15.00" r="8.00"/> 
            <circle cx="180.00" cy="35.00" r="8.00"/> 
            <circle cx="180.00" cy="75.00" r="8.00"/> 
            <circle cx="180.00" cy="95.00" r="8.00"/> 
            <circle cx="211.21" cy="17.98" r="8.00"/> 
            <circle cx="211.15" cy="38.39" r="8.00"/> 
            <circle cx="211.06" cy="58.92" r="8.00"/> 
            <circle cx="210.92" cy="79.66" r="8.00"/> 
            <circle cx="210.67" cy="100.73" r="8.00"/> 
            <circle cx="241.29" cy="26.81" r="8.00"/> 
        </g>
        <g style="fill:#e3bb1c; stroke-width:0.00; stroke:#000000" 
           id="1_Other"> 
            <title>b'Other'</title>        </g>
        <g style="fill:#dc3d3d; stroke-width:0.00; stroke:#000000" 
           id="2_Republican"> 
            <title>b'Republican'</title>            <circle cx="240.85" cy="48.38" r="8.00"/> 
            <circle cx="240.18" cy="70.44" r="8.00"/> 
            <circle cx="269.16" cy="41.16" r="8.00"/> 
            <circle cx="239.10" cy="93.21" r="8.00"/> 
            <circle cx="267.70" cy="64.53" r="8.00"/> 
            <circle cx="237.21" cy="117.14" r="8.00"/> 
            <circle cx="265.52" cy="88.83" r="8.00"/> 
            <circle cx="293.81" cy="60.53" r="8.00"/> 
            <circle cx="290.46" cy="86.07" r="8.00"/> 
            <circle cx="262.04" cy="114.47" r="8.00"/> 
            <circle cx="314.35" cy="84.22" r="8.00"/> 
            <circle cx="285.49" cy="112.94" r="8.00"/> 
            <circle cx="308.06" cy="111.99" r="8.00"/> 
            <circle cx="256.04" cy="142.02" r="8.00"/> 
            <circle cx="330.04" cy="111.36" r="8.00"/> 
            <circle cx="277.70" cy="141.54" r="8.00"/> 
            <circle cx="298.85" cy="141.26" r="8.00"/> 
            <circle cx="319.68" cy="141.09" r="8.00"/> 
            <circle cx="340.32" cy="140.98" r="8.00"/> 
            <circle cx="264.62" cy="172.02" r="8.00"/> 
            <circle cx="284.70" cy="172.02" r="8.00"/> 
            <circle cx="304.74" cy="172.01" r="8.00"/> 
            <circle cx="324.78" cy="172.01" r="8.00"/> 
            <circle cx="344.81" cy="172.01" r="8.00"/> 
        </g>
        <g style="fill:#808080; stroke-width:0.00; stroke:#000000" 
           id="3_Vacant"> 
            <title>b'Vacant'</title>        </g>
    </g>
</svg>
