<?xml version="1.0" encoding="UTF-8" standalone="no"?>
<svg xmlns:svg="http://www.w3.org/2000/svg"
     xmlns="http://www.w3.org/2000/svg" version="1.1"
     width="360" height="185">
    <!-- Created with the Wikimedia parliament diagram creator (http://parliamentdiagram.toolforge.org/parliamentinputform.html) -->
    <g>
        <text x="175" y="175" 
              style="font-size:36px;font-weight:bold;text-align:center;text-anchor:middle;font-family:sans-serif">
            36
        </text>
        <g style="fill:#4165d2; stroke-width:0.00; stroke:#000000" 
           id="0_Democrat"> 
            <title>b'Democrat'</title>            <circle cx="17.81" cy="170.01" r="10.00"/> 
            <circle cx="42.86" cy="170.02" r="10.00"/> 
            <circle cx="67.94" cy="170.03" r="10.00"/> 
            <circle cx="93.07" cy="170.04" r="10.00"/> 
            <circle cx="26.58" cy="126.43" r="10.00"/> 
            <circle cx="53.65" cy="125.75" r="10.00"/> 
            <circle cx="81.94" cy="124.86" r="10.00"/> 
            <circle cx="46.84" cy="86.86" r="10.00"/> 
            <circle cx="112.89" cy="123.85" r="10.00"/> 
            <circle cx="78.32" cy="87.44" r="10.00"/> 
            <circle cx="77.06" cy="54.26" r="10.00"/> 
            <circle cx="113.25" cy="89.44" r="10.00"/> 
            <circle cx="114.15" cy="59.29" r="10.00"/> 
            <circle cx="114.98" cy="31.07" r="10.00"/> 
            <circle cx="154.87" cy="96.19" r="10.00"/> 
            <circle cx="156.36" cy="70.01" r="10.00"/> 
            <circle cx="157.22" cy="44.40" r="10.00"/> 
            <circle cx="157.77" cy="19.03" r="10.00"/> 
            <circle cx="202.23" cy="19.03" r="10.00"/> 
            <circle cx="202.78" cy="44.40" r="10.00"/> 
            <circle cx="203.64" cy="70.01" r="10.00"/> 
            <circle cx="205.13" cy="96.19" r="10.00"/> 
            <circle cx="245.02" cy="31.07" r="10.00"/> 
        </g>
        <g style="fill:#e3bb1c; stroke-width:0.00; stroke:#000000" 
           id="1_Other"> 
            <title>b'Other'</title>        </g>
        <g style="fill:#dc3d3d; stroke-width:0.00; stroke:#000000" 
           id="2_Republican"> 
            <title>b'Republican'</title>            <circle cx="245.85" cy="59.29" r="10.00"/> 
            <circle cx="246.75" cy="89.44" r="10.00"/> 
            <circle cx="282.94" cy="54.26" r="10.00"/> 
            <circle cx="281.68" cy="87.44" r="10.00"/> 
            <circle cx="247.11" cy="123.85" r="10.00"/> 
            <circle cx="313.16" cy="86.86" r="10.00"/> 
            <circle cx="278.06" cy="124.86" r="10.00"/> 
            <circle cx="306.35" cy="125.75" r="10.00"/> 
            <circle cx="333.42" cy="126.43" r="10.00"/> 
            <circle cx="266.93" cy="170.04" r="10.00"/> 
            <circle cx="292.06" cy="170.03" r="10.00"/> 
            <circle cx="317.14" cy="170.02" r="10.00"/> 
            <circle cx="342.19" cy="170.01" r="10.00"/> 
        </g>
    </g>
</svg>
