<?xml version="1.0" encoding="UTF-8" standalone="no"?>
<svg xmlns:svg="http://www.w3.org/2000/svg"
     xmlns="http://www.w3.org/2000/svg" version="1.1"
     width="360" height="185">
    <!-- Created with the Wikimedia parliament diagram creator (http://parliamentdiagram.toolforge.org/parliamentinputform.html) -->
    <g>
        <text x="175" y="175" 
              style="font-size:36px;font-weight:bold;text-align:center;text-anchor:middle;font-family:sans-serif">
            41
        </text>
        <g style="fill:#4165d2; stroke-width:0.00; stroke:#000000" 
           id="0_Democrat"> 
            <title>b'Democrat'</title>            <circle cx="17.81" cy="170.01" r="10.00"/> 
            <circle cx="42.86" cy="170.02" r="10.00"/> 
            <circle cx="67.94" cy="170.03" r="10.00"/> 
            <circle cx="93.07" cy="170.04" r="10.00"/> 
            <circle cx="24.46" cy="132.96" r="10.00"/> 
            <circle cx="51.92" cy="129.98" r="10.00"/> 
            <circle cx="79.16" cy="130.13" r="10.00"/> 
            <circle cx="39.46" cy="98.43" r="10.00"/> 
            <circle cx="107.76" cy="130.62" r="10.00"/> 
            <circle cx="72.39" cy="94.41" r="10.00"/> 
            <circle cx="62.00" cy="68.27" r="10.00"/> 
            <circle cx="104.06" cy="97.00" r="10.00"/> 
            <circle cx="102.45" cy="66.46" r="10.00"/> 
            <circle cx="90.88" cy="44.12" r="10.00"/> 
            <circle cx="139.16" cy="102.61" r="10.00"/> 
            <circle cx="139.27" cy="75.13" r="10.00"/> 
            <circle cx="124.54" cy="27.26" r="10.00"/> 
            <circle cx="139.42" cy="48.63" r="10.00"/> 
            <circle cx="161.18" cy="18.59" r="10.00"/> 
            <circle cx="180.00" cy="42.50" r="10.00"/> 
            <circle cx="180.00" cy="67.50" r="10.00"/> 
            <circle cx="180.00" cy="92.50" r="10.00"/> 
            <circle cx="198.82" cy="18.59" r="10.00"/> 
            <circle cx="220.58" cy="48.63" r="10.00"/> 
            <circle cx="235.46" cy="27.26" r="10.00"/> 
            <circle cx="220.73" cy="75.13" r="10.00"/> 
        </g>
        <g style="fill:#e3bb1c; stroke-width:0.00; stroke:#000000" 
           id="1_Other"> 
            <title>b'Other'</title>        </g>
        <g style="fill:#dc3d3d; stroke-width:0.00; stroke:#000000" 
           id="2_Republican"> 
            <title>b'Republican'</title>            <circle cx="220.84" cy="102.61" r="10.00"/> 
            <circle cx="269.12" cy="44.12" r="10.00"/> 
            <circle cx="257.55" cy="66.46" r="10.00"/> 
            <circle cx="255.94" cy="97.00" r="10.00"/> 
            <circle cx="298.00" cy="68.27" r="10.00"/> 
            <circle cx="287.61" cy="94.41" r="10.00"/> 
            <circle cx="252.24" cy="130.62" r="10.00"/> 
            <circle cx="320.54" cy="98.43" r="10.00"/> 
            <circle cx="280.84" cy="130.13" r="10.00"/> 
            <circle cx="308.08" cy="129.98" r="10.00"/> 
            <circle cx="335.54" cy="132.96" r="10.00"/> 
            <circle cx="266.93" cy="170.04" r="10.00"/> 
            <circle cx="292.06" cy="170.03" r="10.00"/> 
            <circle cx="317.14" cy="170.02" r="10.00"/> 
            <circle cx="342.19" cy="170.01" r="10.00"/> 
        </g>
        <g style="fill:#808080; stroke-width:0.00; stroke:#000000" 
           id="3_Vacant"> 
            <title>b'Vacant'</title>        </g>
    </g>
</svg>
