<?xml version="1.0" encoding="UTF-8" standalone="no"?>
<svg xmlns:svg="http://www.w3.org/2000/svg"
     xmlns="http://www.w3.org/2000/svg" version="1.1"
     width="360" height="185">
    <!-- Created with the Wikimedia parliament diagram creator (http://parliamentdiagram.toolforge.org/parliamentinputform.html) -->
    <g>
        <text x="175" y="175" 
              style="font-size:36px;font-weight:bold;text-align:center;text-anchor:middle;font-family:sans-serif">
            56
        </text>
        <g style="fill:#4165d2; stroke-width:0.00; stroke:#000000" 
           id="0_Democrat"> 
            <title>b'Democrat'</title>            <circle cx="17.81" cy="170.01" r="10.00"/> 
            <circle cx="42.86" cy="170.02" r="10.00"/> 
            <circle cx="67.94" cy="170.03" r="10.00"/> 
            <circle cx="93.07" cy="170.04" r="10.00"/> 
            <circle cx="21.75" cy="143.08" r="10.00"/> 
            <circle cx="48.11" cy="141.12" r="10.00"/> 
            <circle cx="74.64" cy="140.56" r="10.00"/> 
            <circle cx="30.13" cy="117.18" r="10.00"/> 
            <circle cx="100.75" cy="142.91" r="10.00"/> 
            <circle cx="59.38" cy="113.99" r="10.00"/> 
            <circle cx="42.72" cy="93.05" r="10.00"/> 
            <circle cx="88.94" cy="113.93" r="10.00"/> 
            <circle cx="76.15" cy="89.88" r="10.00"/> 
            <circle cx="59.16" cy="71.36" r="10.00"/> 
            <circle cx="116.67" cy="119.63" r="10.00"/> 
            <circle cx="109.82" cy="92.08" r="10.00"/> 
            <circle cx="78.99" cy="52.71" r="10.00"/> 
            <circle cx="97.66" cy="69.88" r="10.00"/> 
            <circle cx="101.65" cy="37.63" r="10.00"/> 
            <circle cx="139.16" cy="102.61" r="10.00"/> 
            <circle cx="122.93" cy="54.90" r="10.00"/> 
            <circle cx="135.76" cy="76.57" r="10.00"/> 
        </g>
        <g style="fill:#e3bb1c; stroke-width:0.00; stroke:#000000" 
           id="1_Other"> 
            <title>b'Other'</title>        </g>
        <g style="fill:#dc3d3d; stroke-width:0.00; stroke:#000000" 
           id="2_Republican"> 
            <title>b'Republican'</title>            <circle cx="126.51" cy="26.55" r="10.00"/> 
            <circle cx="150.80" cy="45.64" r="10.00"/> 
            <circle cx="152.88" cy="19.78" r="10.00"/> 
            <circle cx="165.90" cy="93.64" r="10.00"/> 
            <circle cx="164.89" cy="68.52" r="10.00"/> 
            <circle cx="180.00" cy="42.50" r="10.00"/> 
            <circle cx="180.00" cy="17.50" r="10.00"/> 
            <circle cx="195.11" cy="68.52" r="10.00"/> 
            <circle cx="194.10" cy="93.64" r="10.00"/> 
            <circle cx="207.12" cy="19.78" r="10.00"/> 
            <circle cx="209.20" cy="45.64" r="10.00"/> 
            <circle cx="233.49" cy="26.55" r="10.00"/> 
            <circle cx="224.24" cy="76.57" r="10.00"/> 
            <circle cx="237.07" cy="54.90" r="10.00"/> 
            <circle cx="220.84" cy="102.61" r="10.00"/> 
            <circle cx="258.35" cy="37.63" r="10.00"/> 
            <circle cx="262.34" cy="69.88" r="10.00"/> 
            <circle cx="281.01" cy="52.71" r="10.00"/> 
            <circle cx="250.18" cy="92.08" r="10.00"/> 
            <circle cx="243.33" cy="119.63" r="10.00"/> 
            <circle cx="300.84" cy="71.36" r="10.00"/> 
            <circle cx="283.85" cy="89.88" r="10.00"/> 
            <circle cx="271.06" cy="113.93" r="10.00"/> 
            <circle cx="317.28" cy="93.05" r="10.00"/> 
            <circle cx="300.62" cy="113.99" r="10.00"/> 
            <circle cx="259.25" cy="142.91" r="10.00"/> 
            <circle cx="329.87" cy="117.18" r="10.00"/> 
            <circle cx="285.36" cy="140.56" r="10.00"/> 
            <circle cx="311.89" cy="141.12" r="10.00"/> 
            <circle cx="338.25" cy="143.08" r="10.00"/> 
            <circle cx="266.93" cy="170.04" r="10.00"/> 
            <circle cx="292.06" cy="170.03" r="10.00"/> 
            <circle cx="317.14" cy="170.02" r="10.00"/> 
            <circle cx="342.19" cy="170.01" r="10.00"/> 
        </g>
        <g style="fill:#808080; stroke-width:0.00; stroke:#000000" 
           id="3_Vacant"> 
            <title>b'Vacant'</title>        </g>
    </g>
</svg>
