<?xml version="1.0" encoding="UTF-8" standalone="no"?>
<svg xmlns:svg="http://www.w3.org/2000/svg"
     xmlns="http://www.w3.org/2000/svg" version="1.1"
     width="360" height="185">
    <!-- Created with the Wikimedia parliament diagram creator (http://parliamentdiagram.toolforge.org/parliamentinputform.html) -->
    <g>
        <text x="175" y="175" 
              style="font-size:36px;font-weight:bold;text-align:center;text-anchor:middle;font-family:sans-serif">
            25
        </text>
        <g style="fill:#4165d2; stroke-width:0.00; stroke:#000000" 
           id="0_Democrat"> 
            <title>b'Democrat'</title>            <circle cx="22.23" cy="166.70" r="13.33"/> 
            <circle cx="55.71" cy="166.72" r="13.33"/> 
            <circle cx="89.29" cy="166.76" r="13.33"/> 
            <circle cx="33.05" cy="121.06" r="13.33"/> 
            <circle cx="71.82" cy="117.37" r="13.33"/> 
            <circle cx="56.76" cy="80.59" r="13.33"/> 
            <circle cx="110.80" cy="119.88" r="13.33"/> 
            <circle cx="106.60" cy="78.82" r="13.33"/> 
            <circle cx="91.30" cy="48.85" r="13.33"/> 
            <circle cx="133.61" cy="28.61" r="13.33"/> 
            <circle cx="154.21" cy="92.04" r="13.33"/> 
            <circle cx="154.04" cy="57.73" r="13.33"/> 
            <circle cx="180.00" cy="21.67" r="13.33"/> 
            <circle cx="205.96" cy="57.73" r="13.33"/> 
            <circle cx="205.79" cy="92.04" r="13.33"/> 
            <circle cx="226.39" cy="28.61" r="13.33"/> 
            <circle cx="268.70" cy="48.85" r="13.33"/> 
            <circle cx="253.40" cy="78.82" r="13.33"/> 
            <circle cx="249.20" cy="119.88" r="13.33"/> 
            <circle cx="303.24" cy="80.59" r="13.33"/> 
            <circle cx="288.18" cy="117.37" r="13.33"/> 
            <circle cx="326.95" cy="121.06" r="13.33"/> 
            <circle cx="270.71" cy="166.76" r="13.33"/> 
            <circle cx="304.29" cy="166.72" r="13.33"/> 
        </g>
        <g style="fill:#e3bb1c; stroke-width:0.00; stroke:#000000" 
           id="1_Other"> 
            <title>b'Other'</title>        </g>
        <g style="fill:#dc3d3d; stroke-width:0.00; stroke:#000000" 
           id="2_Republican"> 
            <title>b'Republican'</title>            <circle cx="337.77" cy="166.70" r="13.33"/> 
        </g>
        <g style="fill:#808080; stroke-width:0.00; stroke:#000000" 
           id="3_Vacant"> 
            <title>b'Vacant'</title>        </g>
    </g>
</svg>
