<?xml version="1.0" encoding="UTF-8" standalone="no"?>
<svg xmlns:svg="http://www.w3.org/2000/svg"
     xmlns="http://www.w3.org/2000/svg" version="1.1"
     width="360" height="185">
    <!-- Created with the Wikimedia parliament diagram creator (http://parliamentdiagram.toolforge.org/parliamentinputform.html) -->
    <g>
        <text x="175" y="175" 
              style="font-size:36px;font-weight:bold;text-align:center;text-anchor:middle;font-family:sans-serif">
            59
        </text>
        <g style="fill:#4165d2; stroke-width:0.00; stroke:#000000" 
           id="0_Democrat"> 
            <title>b'Democrat'</title>            <circle cx="17.81" cy="170.01" r="10.00"/> 
            <circle cx="42.86" cy="170.02" r="10.00"/> 
            <circle cx="67.94" cy="170.03" r="10.00"/> 
            <circle cx="93.07" cy="170.04" r="10.00"/> 
            <circle cx="21.43" cy="144.48" r="10.00"/> 
            <circle cx="47.57" cy="143.00" r="10.00"/> 
            <circle cx="73.78" cy="142.93" r="10.00"/> 
            <circle cx="29.05" cy="119.84" r="10.00"/> 
            <circle cx="100.75" cy="142.91" r="10.00"/> 
            <circle cx="57.54" cy="117.46" r="10.00"/> 
            <circle cx="40.47" cy="96.72" r="10.00"/> 
            <circle cx="86.07" cy="118.09" r="10.00"/> 
            <circle cx="72.39" cy="94.41" r="10.00"/> 
            <circle cx="55.40" cy="75.69" r="10.00"/> 
            <circle cx="116.67" cy="119.63" r="10.00"/> 
            <circle cx="104.06" cy="97.00" r="10.00"/> 
            <circle cx="73.47" cy="57.29" r="10.00"/> 
            <circle cx="91.51" cy="74.76" r="10.00"/> 
            <circle cx="94.23" cy="41.98" r="10.00"/> 
            <circle cx="114.15" cy="59.29" r="10.00"/> 
            <circle cx="126.66" cy="80.95" r="10.00"/> 
            <circle cx="139.16" cy="102.61" r="10.00"/> 
            <circle cx="117.14" cy="30.15" r="10.00"/> 
            <circle cx="139.42" cy="48.63" r="10.00"/> 
            <circle cx="152.49" cy="70.91" r="10.00"/> 
            <circle cx="141.64" cy="22.09" r="10.00"/> 
            <circle cx="165.90" cy="93.64" r="10.00"/> 
            <circle cx="166.29" cy="43.19" r="10.00"/> 
            <circle cx="167.11" cy="18.01" r="10.00"/> 
            <circle cx="180.00" cy="67.50" r="10.00"/> 
            <circle cx="192.89" cy="18.01" r="10.00"/> 
            <circle cx="193.71" cy="43.19" r="10.00"/> 
            <circle cx="194.10" cy="93.64" r="10.00"/> 
            <circle cx="218.36" cy="22.09" r="10.00"/> 
            <circle cx="207.51" cy="70.91" r="10.00"/> 
            <circle cx="220.58" cy="48.63" r="10.00"/> 
            <circle cx="242.86" cy="30.15" r="10.00"/> 
            <circle cx="220.84" cy="102.61" r="10.00"/> 
            <circle cx="233.34" cy="80.95" r="10.00"/> 
            <circle cx="245.85" cy="59.29" r="10.00"/> 
            <circle cx="265.77" cy="41.98" r="10.00"/> 
        </g>
        <g style="fill:#e3bb1c; stroke-width:0.00; stroke:#000000" 
           id="1_Other"> 
            <title>b'Other'</title>        </g>
        <g style="fill:#dc3d3d; stroke-width:0.00; stroke:#000000" 
           id="2_Republican"> 
            <title>b'Republican'</title>            <circle cx="268.49" cy="74.76" r="10.00"/> 
            <circle cx="286.53" cy="57.29" r="10.00"/> 
            <circle cx="255.94" cy="97.00" r="10.00"/> 
            <circle cx="243.33" cy="119.63" r="10.00"/> 
            <circle cx="304.60" cy="75.69" r="10.00"/> 
            <circle cx="287.61" cy="94.41" r="10.00"/> 
            <circle cx="273.93" cy="118.09" r="10.00"/> 
            <circle cx="319.53" cy="96.72" r="10.00"/> 
            <circle cx="302.46" cy="117.46" r="10.00"/> 
            <circle cx="259.25" cy="142.91" r="10.00"/> 
            <circle cx="330.95" cy="119.84" r="10.00"/> 
            <circle cx="286.22" cy="142.93" r="10.00"/> 
            <circle cx="312.43" cy="143.00" r="10.00"/> 
            <circle cx="338.57" cy="144.48" r="10.00"/> 
            <circle cx="266.93" cy="170.04" r="10.00"/> 
            <circle cx="292.06" cy="170.03" r="10.00"/> 
            <circle cx="317.14" cy="170.02" r="10.00"/> 
            <circle cx="342.19" cy="170.01" r="10.00"/> 
        </g>
        <g style="fill:#808080; stroke-width:0.00; stroke:#000000" 
           id="3_Vacant"> 
            <title>b'Vacant'</title>        </g>
    </g>
</svg>
