<?xml version="1.0" encoding="UTF-8" standalone="no"?>
<svg xmlns:svg="http://www.w3.org/2000/svg"
     xmlns="http://www.w3.org/2000/svg" version="1.1"
     width="360" height="185">
    <!-- Created with the Wikimedia parliament diagram creator (http://parliamentdiagram.toolforge.org/parliamentinputform.html) -->
    <g>
        <text x="175" y="175" 
              style="font-size:36px;font-weight:bold;text-align:center;text-anchor:middle;font-family:sans-serif">
            118
        </text>
        <g style="fill:#4165d2; stroke-width:0.00; stroke:#000000" 
           id="0_Democrat"> 
            <title>b'Democrat'</title>            <circle cx="13.47" cy="173.34" r="6.67"/> 
            <circle cx="30.15" cy="173.34" r="6.67"/> 
            <circle cx="46.83" cy="173.34" r="6.67"/> 
            <circle cx="63.52" cy="173.34" r="6.67"/> 
            <circle cx="80.22" cy="173.34" r="6.67"/> 
            <circle cx="96.93" cy="173.35" r="6.67"/> 
            <circle cx="15.53" cy="153.04" r="6.67"/> 
            <circle cx="32.35" cy="153.57" r="6.67"/> 
            <circle cx="49.38" cy="153.24" r="6.67"/> 
            <circle cx="66.55" cy="152.81" r="6.67"/> 
            <circle cx="83.55" cy="153.60" r="6.67"/> 
            <circle cx="20.05" cy="133.15" r="6.67"/> 
            <circle cx="37.14" cy="134.26" r="6.67"/> 
            <circle cx="101.12" cy="153.12" r="6.67"/> 
            <circle cx="54.94" cy="133.76" r="6.67"/> 
            <circle cx="26.97" cy="113.97" r="6.67"/> 
            <circle cx="73.16" cy="133.15" r="6.67"/> 
            <circle cx="44.45" cy="115.75" r="6.67"/> 
            <circle cx="90.74" cy="134.91" r="6.67"/> 
            <circle cx="63.39" cy="115.35" r="6.67"/> 
            <circle cx="36.19" cy="95.77" r="6.67"/> 
            <circle cx="54.15" cy="98.38" r="6.67"/> 
            <circle cx="110.15" cy="134.55" r="6.67"/> 
            <circle cx="83.14" cy="114.96" r="6.67"/> 
            <circle cx="47.55" cy="78.83" r="6.67"/> 
            <circle cx="74.53" cy="98.43" r="6.67"/> 
            <circle cx="101.51" cy="118.04" r="6.67"/> 
            <circle cx="66.06" cy="82.44" r="6.67"/> 
            <circle cx="96.20" cy="98.83" r="6.67"/> 
            <circle cx="60.90" cy="63.41" r="6.67"/> 
            <circle cx="88.10" cy="83.39" r="6.67"/> 
            <circle cx="123.48" cy="118.77" r="6.67"/> 
            <circle cx="79.97" cy="68.22" r="6.67"/> 
            <circle cx="115.43" cy="103.64" r="6.67"/> 
            <circle cx="76.04" cy="49.73" r="6.67"/> 
            <circle cx="111.90" cy="85.27" r="6.67"/> 
            <circle cx="103.80" cy="70.59" r="6.67"/> 
            <circle cx="95.64" cy="55.97" r="6.67"/> 
            <circle cx="92.73" cy="38.01" r="6.67"/> 
            <circle cx="131.94" cy="92.31" r="6.67"/> 
            <circle cx="140.27" cy="106.75" r="6.67"/> 
            <circle cx="112.80" cy="45.90" r="6.67"/> 
            <circle cx="121.26" cy="60.30" r="6.67"/> 
            <circle cx="129.76" cy="74.71" r="6.67"/> 
            <circle cx="110.73" cy="28.41" r="6.67"/> 
            <circle cx="131.14" cy="38.18" r="6.67"/> 
            <circle cx="129.77" cy="21.08" r="6.67"/> 
            <circle cx="140.07" cy="52.79" r="6.67"/> 
            <circle cx="150.37" cy="84.49" r="6.67"/> 
            <circle cx="149.21" cy="67.47" r="6.67"/> 
            <circle cx="159.51" cy="99.23" r="6.67"/> 
            <circle cx="150.33" cy="32.96" r="6.67"/> 
            <circle cx="149.56" cy="16.14" r="6.67"/> 
            <circle cx="159.80" cy="48.21" r="6.67"/> 
            <circle cx="169.99" cy="80.50" r="6.67"/> 
            <circle cx="169.63" cy="63.80" r="6.67"/> 
            <circle cx="170.05" cy="30.33" r="6.67"/> 
            <circle cx="169.80" cy="13.65" r="6.67"/> 
            <circle cx="180.00" cy="46.67" r="6.67"/> 
            <circle cx="180.00" cy="96.67" r="6.67"/> 
            <circle cx="190.20" cy="13.65" r="6.67"/> 
            <circle cx="189.95" cy="30.33" r="6.67"/> 
            <circle cx="190.37" cy="63.80" r="6.67"/> 
            <circle cx="190.01" cy="80.50" r="6.67"/> 
            <circle cx="200.20" cy="48.21" r="6.67"/> 
            <circle cx="210.44" cy="16.14" r="6.67"/> 
            <circle cx="209.67" cy="32.96" r="6.67"/> 
            <circle cx="200.49" cy="99.23" r="6.67"/> 
            <circle cx="210.79" cy="67.47" r="6.67"/> 
            <circle cx="209.63" cy="84.49" r="6.67"/> 
            <circle cx="219.93" cy="52.79" r="6.67"/> 
            <circle cx="230.23" cy="21.08" r="6.67"/> 
            <circle cx="228.86" cy="38.18" r="6.67"/> 
        </g>
        <g style="fill:#e3bb1c; stroke-width:0.00; stroke:#000000" 
           id="1_Other"> 
            <title>b'Other'</title>        </g>
        <g style="fill:#dc3d3d; stroke-width:0.00; stroke:#000000" 
           id="2_Republican"> 
            <title>b'Republican'</title>            <circle cx="249.27" cy="28.41" r="6.67"/> 
            <circle cx="230.24" cy="74.71" r="6.67"/> 
            <circle cx="238.74" cy="60.30" r="6.67"/> 
            <circle cx="247.20" cy="45.90" r="6.67"/> 
            <circle cx="219.73" cy="106.75" r="6.67"/> 
            <circle cx="228.06" cy="92.31" r="6.67"/> 
            <circle cx="267.27" cy="38.01" r="6.67"/> 
            <circle cx="264.36" cy="55.97" r="6.67"/> 
            <circle cx="256.20" cy="70.59" r="6.67"/> 
            <circle cx="248.10" cy="85.27" r="6.67"/> 
            <circle cx="283.96" cy="49.73" r="6.67"/> 
            <circle cx="244.57" cy="103.64" r="6.67"/> 
            <circle cx="280.03" cy="68.22" r="6.67"/> 
            <circle cx="236.52" cy="118.77" r="6.67"/> 
            <circle cx="271.90" cy="83.39" r="6.67"/> 
            <circle cx="299.10" cy="63.41" r="6.67"/> 
            <circle cx="263.80" cy="98.83" r="6.67"/> 
            <circle cx="293.94" cy="82.44" r="6.67"/> 
            <circle cx="258.49" cy="118.04" r="6.67"/> 
            <circle cx="285.47" cy="98.43" r="6.67"/> 
            <circle cx="312.45" cy="78.83" r="6.67"/> 
            <circle cx="276.86" cy="114.96" r="6.67"/> 
            <circle cx="249.85" cy="134.55" r="6.67"/> 
            <circle cx="305.85" cy="98.38" r="6.67"/> 
            <circle cx="323.81" cy="95.77" r="6.67"/> 
            <circle cx="296.61" cy="115.35" r="6.67"/> 
            <circle cx="269.26" cy="134.91" r="6.67"/> 
            <circle cx="315.55" cy="115.75" r="6.67"/> 
            <circle cx="286.84" cy="133.15" r="6.67"/> 
            <circle cx="333.03" cy="113.97" r="6.67"/> 
            <circle cx="305.06" cy="133.76" r="6.67"/> 
            <circle cx="258.88" cy="153.12" r="6.67"/> 
            <circle cx="322.86" cy="134.26" r="6.67"/> 
            <circle cx="339.95" cy="133.15" r="6.67"/> 
            <circle cx="276.45" cy="153.60" r="6.67"/> 
            <circle cx="293.45" cy="152.81" r="6.67"/> 
            <circle cx="310.62" cy="153.24" r="6.67"/> 
            <circle cx="327.65" cy="153.57" r="6.67"/> 
            <circle cx="344.47" cy="153.04" r="6.67"/> 
            <circle cx="263.07" cy="173.35" r="6.67"/> 
            <circle cx="279.78" cy="173.34" r="6.67"/> 
            <circle cx="296.48" cy="173.34" r="6.67"/> 
            <circle cx="313.17" cy="173.34" r="6.67"/> 
            <circle cx="329.85" cy="173.34" r="6.67"/> 
            <circle cx="346.53" cy="173.34" r="6.67"/> 
        </g>
    </g>
</svg>
