<?xml version="1.0" encoding="UTF-8" standalone="no"?>
<svg xmlns:svg="http://www.w3.org/2000/svg"
     xmlns="http://www.w3.org/2000/svg" version="1.1"
     width="360" height="185">
    <!-- Created with the Wikimedia parliament diagram creator (http://parliamentdiagram.toolforge.org/parliamentinputform.html) -->
    <g>
        <text x="175" y="175" 
              style="font-size:36px;font-weight:bold;text-align:center;text-anchor:middle;font-family:sans-serif">
            151
        </text>
        <g style="fill:#4165d2; stroke-width:0.00; stroke:#000000" 
           id="0_Democrat"> 
            <title>b'Democrat'</title>            <circle cx="12.24" cy="174.29" r="5.71"/> 
            <circle cx="26.53" cy="174.29" r="5.71"/> 
            <circle cx="40.83" cy="174.29" r="5.71"/> 
            <circle cx="55.13" cy="174.29" r="5.71"/> 
            <circle cx="69.43" cy="174.29" r="5.71"/> 
            <circle cx="83.74" cy="174.29" r="5.71"/> 
            <circle cx="98.06" cy="174.29" r="5.71"/> 
            <circle cx="13.70" cy="157.16" r="5.71"/> 
            <circle cx="28.39" cy="155.55" r="5.71"/> 
            <circle cx="42.82" cy="155.88" r="5.71"/> 
            <circle cx="57.45" cy="155.39" r="5.71"/> 
            <circle cx="71.96" cy="155.80" r="5.71"/> 
            <circle cx="16.91" cy="140.27" r="5.71"/> 
            <circle cx="86.83" cy="155.14" r="5.71"/> 
            <circle cx="32.52" cy="137.18" r="5.71"/> 
            <circle cx="101.54" cy="155.69" r="5.71"/> 
            <circle cx="47.23" cy="137.90" r="5.71"/> 
            <circle cx="21.83" cy="123.80" r="5.71"/> 
            <circle cx="62.61" cy="137.05" r="5.71"/> 
            <circle cx="77.57" cy="137.99" r="5.71"/> 
            <circle cx="38.87" cy="119.45" r="5.71"/> 
            <circle cx="53.99" cy="120.66" r="5.71"/> 
            <circle cx="28.41" cy="107.92" r="5.71"/> 
            <circle cx="93.69" cy="136.99" r="5.71"/> 
            <circle cx="70.50" cy="119.72" r="5.71"/> 
            <circle cx="47.34" cy="102.64" r="5.71"/> 
            <circle cx="109.19" cy="138.37" r="5.71"/> 
            <circle cx="36.57" cy="92.79" r="5.71"/> 
            <circle cx="86.08" cy="121.38" r="5.71"/> 
            <circle cx="62.97" cy="104.47" r="5.71"/> 
            <circle cx="46.24" cy="78.58" r="5.71"/> 
            <circle cx="57.80" cy="86.98" r="5.71"/> 
            <circle cx="80.93" cy="103.78" r="5.71"/> 
            <circle cx="104.05" cy="120.58" r="5.71"/> 
            <circle cx="74.02" cy="89.62" r="5.71"/> 
            <circle cx="97.26" cy="106.43" r="5.71"/> 
            <circle cx="57.32" cy="65.44" r="5.71"/> 
            <circle cx="120.60" cy="123.27" r="5.71"/> 
            <circle cx="70.11" cy="72.73" r="5.71"/> 
            <circle cx="93.65" cy="89.62" r="5.71"/> 
            <circle cx="86.95" cy="76.36" r="5.71"/> 
            <circle cx="69.68" cy="53.49" r="5.71"/> 
            <circle cx="117.48" cy="106.58" r="5.71"/> 
            <circle cx="110.80" cy="93.58" r="5.71"/> 
            <circle cx="84.06" cy="60.08" r="5.71"/> 
            <circle cx="83.19" cy="42.87" r="5.71"/> 
            <circle cx="108.39" cy="77.55" r="5.71"/> 
            <circle cx="101.51" cy="64.93" r="5.71"/> 
            <circle cx="135.16" cy="111.17" r="5.71"/> 
            <circle cx="99.46" cy="49.24" r="5.71"/> 
            <circle cx="97.73" cy="33.69" r="5.71"/> 
            <circle cx="126.30" cy="83.18" r="5.71"/> 
            <circle cx="133.44" cy="95.55" r="5.71"/> 
            <circle cx="117.47" cy="55.54" r="5.71"/> 
            <circle cx="124.78" cy="67.86" r="5.71"/> 
            <circle cx="116.06" cy="40.37" r="5.71"/> 
            <circle cx="113.12" cy="26.04" r="5.71"/> 
            <circle cx="152.11" cy="102.74" r="5.71"/> 
            <circle cx="143.33" cy="75.54" r="5.71"/> 
            <circle cx="134.53" cy="48.35" r="5.71"/> 
            <circle cx="129.22" cy="20.01" r="5.71"/> 
            <circle cx="133.63" cy="33.60" r="5.71"/> 
            <circle cx="142.46" cy="60.77" r="5.71"/> 
            <circle cx="151.29" cy="87.94" r="5.71"/> 
            <circle cx="145.85" cy="15.65" r="5.71"/> 
            <circle cx="152.39" cy="43.48" r="5.71"/> 
            <circle cx="151.90" cy="29.02" r="5.71"/> 
            <circle cx="161.40" cy="70.86" r="5.71"/> 
            <circle cx="161.01" cy="56.45" r="5.71"/> 
            <circle cx="170.53" cy="98.40" r="5.71"/> 
            <circle cx="162.83" cy="13.02" r="5.71"/> 
            <circle cx="170.30" cy="84.06" r="5.71"/> 
            <circle cx="170.74" cy="41.02" r="5.71"/> 
            <circle cx="170.59" cy="26.72" r="5.71"/> 
            <circle cx="180.00" cy="12.14" r="5.71"/> 
            <circle cx="180.00" cy="55.00" r="5.71"/> 
            <circle cx="180.00" cy="69.29" r="5.71"/> 
            <circle cx="189.41" cy="26.72" r="5.71"/> 
        </g>
        <g style="fill:#e3bb1c; stroke-width:0.00; stroke:#000000" 
           id="1_Other"> 
            <title>b'Other'</title>            <circle cx="189.26" cy="41.02" r="5.71"/> 
            <circle cx="189.70" cy="84.06" r="5.71"/> 
            <circle cx="197.17" cy="13.02" r="5.71"/> 
        </g>
        <g style="fill:#dc3d3d; stroke-width:0.00; stroke:#000000" 
           id="2_Republican"> 
            <title>b'Republican'</title>            <circle cx="189.47" cy="98.40" r="5.71"/> 
            <circle cx="198.99" cy="56.45" r="5.71"/> 
            <circle cx="198.60" cy="70.86" r="5.71"/> 
            <circle cx="208.10" cy="29.02" r="5.71"/> 
            <circle cx="207.61" cy="43.48" r="5.71"/> 
            <circle cx="214.15" cy="15.65" r="5.71"/> 
            <circle cx="208.71" cy="87.94" r="5.71"/> 
            <circle cx="217.54" cy="60.77" r="5.71"/> 
            <circle cx="226.37" cy="33.60" r="5.71"/> 
            <circle cx="230.78" cy="20.01" r="5.71"/> 
            <circle cx="225.47" cy="48.35" r="5.71"/> 
            <circle cx="216.67" cy="75.54" r="5.71"/> 
            <circle cx="207.89" cy="102.74" r="5.71"/> 
            <circle cx="246.88" cy="26.04" r="5.71"/> 
            <circle cx="243.94" cy="40.37" r="5.71"/> 
            <circle cx="235.22" cy="67.86" r="5.71"/> 
            <circle cx="242.53" cy="55.54" r="5.71"/> 
            <circle cx="226.56" cy="95.55" r="5.71"/> 
            <circle cx="233.70" cy="83.18" r="5.71"/> 
            <circle cx="262.27" cy="33.69" r="5.71"/> 
            <circle cx="260.54" cy="49.24" r="5.71"/> 
            <circle cx="224.84" cy="111.17" r="5.71"/> 
            <circle cx="258.49" cy="64.93" r="5.71"/> 
            <circle cx="251.61" cy="77.55" r="5.71"/> 
            <circle cx="276.81" cy="42.87" r="5.71"/> 
            <circle cx="275.94" cy="60.08" r="5.71"/> 
            <circle cx="249.20" cy="93.58" r="5.71"/> 
            <circle cx="242.52" cy="106.58" r="5.71"/> 
            <circle cx="290.32" cy="53.49" r="5.71"/> 
            <circle cx="273.05" cy="76.36" r="5.71"/> 
            <circle cx="266.35" cy="89.62" r="5.71"/> 
            <circle cx="289.89" cy="72.73" r="5.71"/> 
            <circle cx="239.40" cy="123.27" r="5.71"/> 
            <circle cx="302.68" cy="65.44" r="5.71"/> 
            <circle cx="262.74" cy="106.43" r="5.71"/> 
            <circle cx="285.98" cy="89.62" r="5.71"/> 
            <circle cx="255.95" cy="120.58" r="5.71"/> 
            <circle cx="279.07" cy="103.78" r="5.71"/> 
            <circle cx="302.20" cy="86.98" r="5.71"/> 
            <circle cx="313.76" cy="78.58" r="5.71"/> 
            <circle cx="297.03" cy="104.47" r="5.71"/> 
            <circle cx="273.92" cy="121.38" r="5.71"/> 
            <circle cx="323.43" cy="92.79" r="5.71"/> 
            <circle cx="250.81" cy="138.37" r="5.71"/> 
            <circle cx="312.66" cy="102.64" r="5.71"/> 
            <circle cx="289.50" cy="119.72" r="5.71"/> 
            <circle cx="266.31" cy="136.99" r="5.71"/> 
            <circle cx="331.59" cy="107.92" r="5.71"/> 
            <circle cx="306.01" cy="120.66" r="5.71"/> 
            <circle cx="321.13" cy="119.45" r="5.71"/> 
            <circle cx="282.43" cy="137.99" r="5.71"/> 
            <circle cx="297.39" cy="137.05" r="5.71"/> 
            <circle cx="338.17" cy="123.80" r="5.71"/> 
            <circle cx="312.77" cy="137.90" r="5.71"/> 
            <circle cx="258.46" cy="155.69" r="5.71"/> 
            <circle cx="327.48" cy="137.18" r="5.71"/> 
            <circle cx="273.17" cy="155.14" r="5.71"/> 
            <circle cx="343.09" cy="140.27" r="5.71"/> 
            <circle cx="288.04" cy="155.80" r="5.71"/> 
            <circle cx="302.55" cy="155.39" r="5.71"/> 
            <circle cx="317.18" cy="155.88" r="5.71"/> 
            <circle cx="331.61" cy="155.55" r="5.71"/> 
            <circle cx="346.30" cy="157.16" r="5.71"/> 
        </g>
        <g style="fill:#808080; stroke-width:0.00; stroke:#000000" 
           id="3_Vacant"> 
            <title>b'Vacant'</title>            <circle cx="261.94" cy="174.29" r="5.71"/> 
            <circle cx="276.26" cy="174.29" r="5.71"/> 
            <circle cx="290.57" cy="174.29" r="5.71"/> 
            <circle cx="304.87" cy="174.29" r="5.71"/> 
            <circle cx="319.17" cy="174.29" r="5.71"/> 
            <circle cx="333.47" cy="174.29" r="5.71"/> 
            <circle cx="347.76" cy="174.29" r="5.71"/> 
        </g>
    </g>
</svg>
