<?xml version="1.0" encoding="UTF-8" standalone="no"?>
<svg xmlns:svg="http://www.w3.org/2000/svg"
     xmlns="http://www.w3.org/2000/svg" version="1.1"
     width="360" height="185">
    <!-- Created with the Wikimedia parliament diagram creator (http://parliamentdiagram.toolforge.org/parliamentinputform.html) -->
    <g>
        <text x="175" y="175" 
              style="font-size:36px;font-weight:bold;text-align:center;text-anchor:middle;font-family:sans-serif">
            47
        </text>
        <g style="fill:#4165d2; stroke-width:0.00; stroke:#000000" 
           id="0_Democrat"> 
            <title>b'Democrat'</title>            <circle cx="17.81" cy="170.01" r="10.00"/> 
            <circle cx="42.86" cy="170.02" r="10.00"/> 
            <circle cx="67.94" cy="170.03" r="10.00"/> 
            <circle cx="93.07" cy="170.04" r="10.00"/> 
            <circle cx="23.08" cy="137.79" r="10.00"/> 
            <circle cx="49.58" cy="136.44" r="10.00"/> 
            <circle cx="77.19" cy="134.32" r="10.00"/> 
            <circle cx="34.68" cy="107.28" r="10.00"/> 
            <circle cx="104.52" cy="135.75" r="10.00"/> 
            <circle cx="64.39" cy="105.56" r="10.00"/> 
            <circle cx="52.15" cy="79.70" r="10.00"/> 
            <circle cx="97.49" cy="103.53" r="10.00"/> 
            <circle cx="86.37" cy="79.31" r="10.00"/> 
            <circle cx="74.78" cy="56.17" r="10.00"/> 
            <circle cx="128.85" cy="109.01" r="10.00"/> 
            <circle cx="101.65" cy="37.63" r="10.00"/> 
            <circle cx="114.15" cy="59.29" r="10.00"/> 
            <circle cx="126.66" cy="80.95" r="10.00"/> 
            <circle cx="131.69" cy="24.85" r="10.00"/> 
            <circle cx="146.02" cy="46.76" r="10.00"/> 
            <circle cx="161.92" cy="94.39" r="10.00"/> 
            <circle cx="161.56" cy="69.02" r="10.00"/> 
            <circle cx="163.68" cy="18.32" r="10.00"/> 
            <circle cx="180.00" cy="42.50" r="10.00"/> 
            <circle cx="196.32" cy="18.32" r="10.00"/> 
            <circle cx="198.44" cy="69.02" r="10.00"/> 
            <circle cx="198.08" cy="94.39" r="10.00"/> 
            <circle cx="213.98" cy="46.76" r="10.00"/> 
            <circle cx="228.31" cy="24.85" r="10.00"/> 
            <circle cx="233.34" cy="80.95" r="10.00"/> 
            <circle cx="245.85" cy="59.29" r="10.00"/> 
            <circle cx="258.35" cy="37.63" r="10.00"/> 
        </g>
        <g style="fill:#e3bb1c; stroke-width:0.00; stroke:#000000" 
           id="1_Other"> 
            <title>b'Other'</title>        </g>
        <g style="fill:#dc3d3d; stroke-width:0.00; stroke:#000000" 
           id="2_Republican"> 
            <title>b'Republican'</title>            <circle cx="231.15" cy="109.01" r="10.00"/> 
            <circle cx="285.22" cy="56.17" r="10.00"/> 
            <circle cx="273.63" cy="79.31" r="10.00"/> 
            <circle cx="262.51" cy="103.53" r="10.00"/> 
            <circle cx="307.85" cy="79.70" r="10.00"/> 
            <circle cx="295.61" cy="105.56" r="10.00"/> 
            <circle cx="255.48" cy="135.75" r="10.00"/> 
            <circle cx="325.32" cy="107.28" r="10.00"/> 
            <circle cx="282.81" cy="134.32" r="10.00"/> 
            <circle cx="310.42" cy="136.44" r="10.00"/> 
            <circle cx="336.92" cy="137.79" r="10.00"/> 
            <circle cx="266.93" cy="170.04" r="10.00"/> 
            <circle cx="292.06" cy="170.03" r="10.00"/> 
            <circle cx="317.14" cy="170.02" r="10.00"/> 
            <circle cx="342.19" cy="170.01" r="10.00"/> 
        </g>
        <g style="fill:#808080; stroke-width:0.00; stroke:#000000" 
           id="3_Vacant"> 
            <title>b'Vacant'</title>        </g>
    </g>
</svg>
