<?xml version="1.0" encoding="UTF-8" standalone="no"?>
<svg xmlns:svg="http://www.w3.org/2000/svg"
     xmlns="http://www.w3.org/2000/svg" version="1.1"
     width="360" height="185">
    <!-- Created with the Wikimedia parliament diagram creator (http://parliamentdiagram.toolforge.org/parliamentinputform.html) -->
    <g>
        <text x="175" y="175" 
              style="font-size:36px;font-weight:bold;text-align:center;text-anchor:middle;font-family:sans-serif">
            110
        </text>
        <g style="fill:#4165d2; stroke-width:0.00; stroke:#000000" 
           id="0_Democrat"> 
            <title>b'Democrat'</title>            <circle cx="13.47" cy="173.34" r="6.67"/> 
            <circle cx="30.15" cy="173.34" r="6.67"/> 
            <circle cx="46.83" cy="173.34" r="6.67"/> 
            <circle cx="63.52" cy="173.34" r="6.67"/> 
            <circle cx="80.22" cy="173.34" r="6.67"/> 
            <circle cx="96.93" cy="173.35" r="6.67"/> 
            <circle cx="15.82" cy="151.29" r="6.67"/> 
            <circle cx="32.69" cy="151.70" r="6.67"/> 
            <circle cx="49.60" cy="152.20" r="6.67"/> 
            <circle cx="66.85" cy="151.55" r="6.67"/> 
            <circle cx="83.94" cy="152.22" r="6.67"/> 
            <circle cx="21.09" cy="129.76" r="6.67"/> 
            <circle cx="38.35" cy="130.66" r="6.67"/> 
            <circle cx="101.75" cy="151.35" r="6.67"/> 
            <circle cx="55.70" cy="131.77" r="6.67"/> 
            <circle cx="74.22" cy="130.78" r="6.67"/> 
            <circle cx="29.16" cy="109.11" r="6.67"/> 
            <circle cx="46.99" cy="110.66" r="6.67"/> 
            <circle cx="92.07" cy="132.38" r="6.67"/> 
            <circle cx="64.98" cy="112.57" r="6.67"/> 
            <circle cx="39.90" cy="89.72" r="6.67"/> 
            <circle cx="112.28" cy="131.44" r="6.67"/> 
            <circle cx="85.37" cy="111.76" r="6.67"/> 
            <circle cx="58.43" cy="92.13" r="6.67"/> 
            <circle cx="77.19" cy="95.10" r="6.67"/> 
            <circle cx="53.12" cy="71.92" r="6.67"/> 
            <circle cx="104.25" cy="114.72" r="6.67"/> 
            <circle cx="72.45" cy="75.44" r="6.67"/> 
            <circle cx="99.89" cy="95.18" r="6.67"/> 
            <circle cx="68.59" cy="56.04" r="6.67"/> 
            <circle cx="92.04" cy="79.79" r="6.67"/> 
            <circle cx="127.75" cy="115.08" r="6.67"/> 
            <circle cx="88.73" cy="60.97" r="6.67"/> 
            <circle cx="119.91" cy="100.07" r="6.67"/> 
            <circle cx="86.03" cy="42.35" r="6.67"/> 
            <circle cx="117.28" cy="81.63" r="6.67"/> 
            <circle cx="109.14" cy="67.05" r="6.67"/> 
            <circle cx="106.93" cy="49.00" r="6.67"/> 
            <circle cx="105.13" cy="31.10" r="6.67"/> 
            <circle cx="138.33" cy="89.09" r="6.67"/> 
            <circle cx="147.04" cy="103.46" r="6.67"/> 
            <circle cx="128.05" cy="57.20" r="6.67"/> 
            <circle cx="136.90" cy="71.59" r="6.67"/> 
            <circle cx="126.68" cy="39.80" r="6.67"/> 
            <circle cx="125.55" cy="22.48" r="6.67"/> 
            <circle cx="148.29" cy="50.49" r="6.67"/> 
            <circle cx="147.55" cy="33.55" r="6.67"/> 
            <circle cx="158.68" cy="82.30" r="6.67"/> 
            <circle cx="146.94" cy="16.64" r="6.67"/> 
            <circle cx="158.06" cy="65.42" r="6.67"/> 
            <circle cx="168.74" cy="97.43" r="6.67"/> 
            <circle cx="169.34" cy="47.09" r="6.67"/> 
            <circle cx="169.11" cy="30.40" r="6.67"/> 
        </g>
        <g style="fill:#e3bb1c; stroke-width:0.00; stroke:#000000" 
           id="1_Other"> 
            <title>b'Other'</title>        </g>
        <g style="fill:#dc3d3d; stroke-width:0.00; stroke:#000000" 
           id="2_Republican"> 
            <title>b'Republican'</title>            <circle cx="168.92" cy="13.70" r="6.67"/> 
            <circle cx="180.00" cy="63.33" r="6.67"/> 
            <circle cx="180.00" cy="80.00" r="6.67"/> 
            <circle cx="191.08" cy="13.70" r="6.67"/> 
            <circle cx="190.89" cy="30.40" r="6.67"/> 
            <circle cx="190.66" cy="47.09" r="6.67"/> 
            <circle cx="191.26" cy="97.43" r="6.67"/> 
            <circle cx="201.94" cy="65.42" r="6.67"/> 
            <circle cx="213.06" cy="16.64" r="6.67"/> 
            <circle cx="201.32" cy="82.30" r="6.67"/> 
            <circle cx="212.45" cy="33.55" r="6.67"/> 
            <circle cx="211.71" cy="50.49" r="6.67"/> 
            <circle cx="234.45" cy="22.48" r="6.67"/> 
            <circle cx="233.32" cy="39.80" r="6.67"/> 
            <circle cx="223.10" cy="71.59" r="6.67"/> 
            <circle cx="231.95" cy="57.20" r="6.67"/> 
            <circle cx="212.96" cy="103.46" r="6.67"/> 
            <circle cx="221.67" cy="89.09" r="6.67"/> 
            <circle cx="254.87" cy="31.10" r="6.67"/> 
            <circle cx="253.07" cy="49.00" r="6.67"/> 
            <circle cx="250.86" cy="67.05" r="6.67"/> 
            <circle cx="242.72" cy="81.63" r="6.67"/> 
            <circle cx="273.97" cy="42.35" r="6.67"/> 
            <circle cx="240.09" cy="100.07" r="6.67"/> 
            <circle cx="271.27" cy="60.97" r="6.67"/> 
            <circle cx="232.25" cy="115.08" r="6.67"/> 
            <circle cx="267.96" cy="79.79" r="6.67"/> 
            <circle cx="291.41" cy="56.04" r="6.67"/> 
            <circle cx="260.11" cy="95.18" r="6.67"/> 
            <circle cx="287.55" cy="75.44" r="6.67"/> 
            <circle cx="255.75" cy="114.72" r="6.67"/> 
            <circle cx="306.88" cy="71.92" r="6.67"/> 
            <circle cx="282.81" cy="95.10" r="6.67"/> 
            <circle cx="301.57" cy="92.13" r="6.67"/> 
            <circle cx="274.63" cy="111.76" r="6.67"/> 
            <circle cx="247.72" cy="131.44" r="6.67"/> 
            <circle cx="320.10" cy="89.72" r="6.67"/> 
            <circle cx="295.02" cy="112.57" r="6.67"/> 
            <circle cx="267.93" cy="132.38" r="6.67"/> 
            <circle cx="313.01" cy="110.66" r="6.67"/> 
            <circle cx="330.84" cy="109.11" r="6.67"/> 
            <circle cx="285.78" cy="130.78" r="6.67"/> 
            <circle cx="304.30" cy="131.77" r="6.67"/> 
            <circle cx="258.25" cy="151.35" r="6.67"/> 
            <circle cx="321.65" cy="130.66" r="6.67"/> 
            <circle cx="338.91" cy="129.76" r="6.67"/> 
            <circle cx="276.06" cy="152.22" r="6.67"/> 
            <circle cx="293.15" cy="151.55" r="6.67"/> 
            <circle cx="310.40" cy="152.20" r="6.67"/> 
            <circle cx="327.31" cy="151.70" r="6.67"/> 
            <circle cx="344.18" cy="151.29" r="6.67"/> 
            <circle cx="263.07" cy="173.35" r="6.67"/> 
            <circle cx="279.78" cy="173.34" r="6.67"/> 
            <circle cx="296.48" cy="173.34" r="6.67"/> 
            <circle cx="313.17" cy="173.34" r="6.67"/> 
            <circle cx="329.85" cy="173.34" r="6.67"/> 
            <circle cx="346.53" cy="173.34" r="6.67"/> 
        </g>
    </g>
</svg>
