<?xml version="1.0" encoding="UTF-8" standalone="no"?>
<svg xmlns:svg="http://www.w3.org/2000/svg"
     xmlns="http://www.w3.org/2000/svg" version="1.1"
     width="360" height="185">
    <!-- Created with the Wikimedia parliament diagram creator (http://parliamentdiagram.toolforge.org/parliamentinputform.html) -->
    <g>
        <text x="175" y="175" 
              style="font-size:36px;font-weight:bold;text-align:center;text-anchor:middle;font-family:sans-serif">
            163
        </text>
        <g style="fill:#4165d2; stroke-width:0.00; stroke:#000000" 
           id="0_Democrat"> 
            <title>b'Democrat'</title>            <circle cx="12.24" cy="174.29" r="5.71"/> 
            <circle cx="26.53" cy="174.29" r="5.71"/> 
            <circle cx="40.83" cy="174.29" r="5.71"/> 
            <circle cx="55.13" cy="174.29" r="5.71"/> 
            <circle cx="69.43" cy="174.29" r="5.71"/> 
            <circle cx="83.74" cy="174.29" r="5.71"/> 
            <circle cx="98.06" cy="174.29" r="5.71"/> 
            <circle cx="13.63" cy="157.71" r="5.71"/> 
            <circle cx="28.08" cy="157.55" r="5.71"/> 
            <circle cx="42.57" cy="157.34" r="5.71"/> 
            <circle cx="57.12" cy="157.09" r="5.71"/> 
            <circle cx="71.75" cy="156.76" r="5.71"/> 
            <circle cx="16.65" cy="141.35" r="5.71"/> 
            <circle cx="86.27" cy="157.35" r="5.71"/> 
            <circle cx="31.44" cy="141.07" r="5.71"/> 
            <circle cx="101.15" cy="156.99" r="5.71"/> 
            <circle cx="46.36" cy="140.73" r="5.71"/> 
            <circle cx="61.46" cy="140.32" r="5.71"/> 
            <circle cx="21.28" cy="125.37" r="5.71"/> 
            <circle cx="36.59" cy="125.06" r="5.71"/> 
            <circle cx="76.84" cy="139.82" r="5.71"/> 
            <circle cx="52.16" cy="124.71" r="5.71"/> 
            <circle cx="91.75" cy="141.13" r="5.71"/> 
            <circle cx="27.47" cy="109.93" r="5.71"/> 
            <circle cx="68.08" cy="124.32" r="5.71"/> 
            <circle cx="43.46" cy="109.72" r="5.71"/> 
            <circle cx="107.85" cy="140.73" r="5.71"/> 
            <circle cx="35.15" cy="95.18" r="5.71"/> 
            <circle cx="59.86" cy="109.52" r="5.71"/> 
            <circle cx="84.55" cy="123.90" r="5.71"/> 
            <circle cx="51.96" cy="95.21" r="5.71"/> 
            <circle cx="100.02" cy="126.13" r="5.71"/> 
            <circle cx="76.85" cy="109.39" r="5.71"/> 
            <circle cx="44.26" cy="81.26" r="5.71"/> 
            <circle cx="69.36" cy="95.38" r="5.71"/> 
            <circle cx="94.70" cy="109.42" r="5.71"/> 
            <circle cx="62.00" cy="81.72" r="5.71"/> 
            <circle cx="117.86" cy="126.27" r="5.71"/> 
            <circle cx="54.70" cy="68.30" r="5.71"/> 
            <circle cx="87.60" cy="95.81" r="5.71"/> 
            <circle cx="110.81" cy="112.83" r="5.71"/> 
            <circle cx="80.52" cy="82.51" r="5.71"/> 
            <circle cx="73.45" cy="69.41" r="5.71"/> 
            <circle cx="66.37" cy="56.45" r="5.71"/> 
            <circle cx="107.03" cy="96.74" r="5.71"/> 
            <circle cx="100.12" cy="83.85" r="5.71"/> 
            <circle cx="93.17" cy="71.09" r="5.71"/> 
            <circle cx="86.18" cy="58.42" r="5.71"/> 
            <circle cx="79.16" cy="45.81" r="5.71"/> 
        </g>
        <g style="fill:#e3bb1c; stroke-width:0.00; stroke:#000000" 
           id="1_Other"> 
            <title>b'Other'</title>        </g>
        <g style="fill:#dc3d3d; stroke-width:0.00; stroke:#000000" 
           id="2_Republican"> 
            <title>b'Republican'</title>            <circle cx="130.72" cy="114.28" r="5.71"/> 
            <circle cx="123.78" cy="101.65" r="5.71"/> 
            <circle cx="121.22" cy="86.18" r="5.71"/> 
            <circle cx="114.18" cy="73.73" r="5.71"/> 
            <circle cx="107.11" cy="61.31" r="5.71"/> 
            <circle cx="100.03" cy="48.89" r="5.71"/> 
            <circle cx="92.94" cy="36.49" r="5.71"/> 
            <circle cx="107.57" cy="28.57" r="5.71"/> 
            <circle cx="138.53" cy="92.95" r="5.71"/> 
            <circle cx="114.84" cy="40.94" r="5.71"/> 
            <circle cx="145.84" cy="105.30" r="5.71"/> 
            <circle cx="122.15" cy="53.30" r="5.71"/> 
            <circle cx="129.49" cy="65.66" r="5.71"/> 
            <circle cx="136.91" cy="78.02" r="5.71"/> 
            <circle cx="122.91" cy="22.15" r="5.71"/> 
            <circle cx="130.44" cy="34.65" r="5.71"/> 
            <circle cx="138.05" cy="47.18" r="5.71"/> 
            <circle cx="145.78" cy="59.77" r="5.71"/> 
            <circle cx="154.58" cy="86.98" r="5.71"/> 
            <circle cx="138.82" cy="17.27" r="5.71"/> 
            <circle cx="153.70" cy="72.46" r="5.71"/> 
            <circle cx="146.62" cy="30.10" r="5.71"/> 
            <circle cx="162.52" cy="99.74" r="5.71"/> 
            <circle cx="154.57" cy="43.05" r="5.71"/> 
            <circle cx="155.13" cy="14.00" r="5.71"/> 
            <circle cx="162.72" cy="56.20" r="5.71"/> 
            <circle cx="163.21" cy="27.35" r="5.71"/> 
            <circle cx="171.44" cy="83.95" r="5.71"/> 
            <circle cx="171.16" cy="69.64" r="5.71"/> 
            <circle cx="171.48" cy="40.97" r="5.71"/> 
            <circle cx="171.68" cy="12.35" r="5.71"/> 
            <circle cx="180.00" cy="26.43" r="5.71"/> 
            <circle cx="180.00" cy="55.00" r="5.71"/> 
            <circle cx="180.00" cy="97.86" r="5.71"/> 
            <circle cx="188.32" cy="12.35" r="5.71"/> 
            <circle cx="188.52" cy="40.97" r="5.71"/> 
            <circle cx="188.84" cy="69.64" r="5.71"/> 
            <circle cx="188.56" cy="83.95" r="5.71"/> 
            <circle cx="196.79" cy="27.35" r="5.71"/> 
            <circle cx="197.28" cy="56.20" r="5.71"/> 
            <circle cx="204.87" cy="14.00" r="5.71"/> 
            <circle cx="205.43" cy="43.05" r="5.71"/> 
            <circle cx="197.48" cy="99.74" r="5.71"/> 
            <circle cx="213.38" cy="30.10" r="5.71"/> 
            <circle cx="206.30" cy="72.46" r="5.71"/> 
            <circle cx="221.18" cy="17.27" r="5.71"/> 
            <circle cx="205.42" cy="86.98" r="5.71"/> 
            <circle cx="214.22" cy="59.77" r="5.71"/> 
            <circle cx="221.95" cy="47.18" r="5.71"/> 
            <circle cx="229.56" cy="34.65" r="5.71"/> 
            <circle cx="237.09" cy="22.15" r="5.71"/> 
            <circle cx="223.09" cy="78.02" r="5.71"/> 
            <circle cx="230.51" cy="65.66" r="5.71"/> 
            <circle cx="237.85" cy="53.30" r="5.71"/> 
            <circle cx="214.16" cy="105.30" r="5.71"/> 
            <circle cx="245.16" cy="40.94" r="5.71"/> 
            <circle cx="221.47" cy="92.95" r="5.71"/> 
            <circle cx="252.43" cy="28.57" r="5.71"/> 
            <circle cx="267.06" cy="36.49" r="5.71"/> 
            <circle cx="259.97" cy="48.89" r="5.71"/> 
            <circle cx="252.89" cy="61.31" r="5.71"/> 
            <circle cx="245.82" cy="73.73" r="5.71"/> 
            <circle cx="238.78" cy="86.18" r="5.71"/> 
            <circle cx="236.22" cy="101.65" r="5.71"/> 
            <circle cx="229.28" cy="114.28" r="5.71"/> 
            <circle cx="280.84" cy="45.81" r="5.71"/> 
            <circle cx="273.82" cy="58.42" r="5.71"/> 
            <circle cx="266.83" cy="71.09" r="5.71"/> 
            <circle cx="259.88" cy="83.85" r="5.71"/> 
            <circle cx="252.97" cy="96.74" r="5.71"/> 
            <circle cx="293.63" cy="56.45" r="5.71"/> 
            <circle cx="286.55" cy="69.41" r="5.71"/> 
            <circle cx="279.48" cy="82.51" r="5.71"/> 
            <circle cx="249.19" cy="112.83" r="5.71"/> 
            <circle cx="272.40" cy="95.81" r="5.71"/> 
            <circle cx="305.30" cy="68.30" r="5.71"/> 
            <circle cx="242.14" cy="126.27" r="5.71"/> 
            <circle cx="298.00" cy="81.72" r="5.71"/> 
            <circle cx="265.30" cy="109.42" r="5.71"/> 
            <circle cx="290.64" cy="95.38" r="5.71"/> 
            <circle cx="315.74" cy="81.26" r="5.71"/> 
            <circle cx="283.15" cy="109.39" r="5.71"/> 
            <circle cx="259.98" cy="126.13" r="5.71"/> 
            <circle cx="308.04" cy="95.21" r="5.71"/> 
            <circle cx="275.45" cy="123.90" r="5.71"/> 
            <circle cx="300.14" cy="109.52" r="5.71"/> 
            <circle cx="324.85" cy="95.18" r="5.71"/> 
            <circle cx="252.15" cy="140.73" r="5.71"/> 
            <circle cx="316.54" cy="109.72" r="5.71"/> 
            <circle cx="291.92" cy="124.32" r="5.71"/> 
            <circle cx="332.53" cy="109.93" r="5.71"/> 
            <circle cx="268.25" cy="141.13" r="5.71"/> 
            <circle cx="307.84" cy="124.71" r="5.71"/> 
            <circle cx="283.16" cy="139.82" r="5.71"/> 
            <circle cx="323.41" cy="125.06" r="5.71"/> 
            <circle cx="338.72" cy="125.37" r="5.71"/> 
            <circle cx="298.54" cy="140.32" r="5.71"/> 
            <circle cx="313.64" cy="140.73" r="5.71"/> 
            <circle cx="258.85" cy="156.99" r="5.71"/> 
            <circle cx="328.56" cy="141.07" r="5.71"/> 
            <circle cx="273.73" cy="157.35" r="5.71"/> 
            <circle cx="343.35" cy="141.35" r="5.71"/> 
            <circle cx="288.25" cy="156.76" r="5.71"/> 
            <circle cx="302.88" cy="157.09" r="5.71"/> 
            <circle cx="317.43" cy="157.34" r="5.71"/> 
            <circle cx="331.92" cy="157.55" r="5.71"/> 
            <circle cx="346.37" cy="157.71" r="5.71"/> 
            <circle cx="261.94" cy="174.29" r="5.71"/> 
        </g>
        <g style="fill:#808080; stroke-width:0.00; stroke:#000000" 
           id="3_Vacant"> 
            <title>b'Vacant'</title>            <circle cx="276.26" cy="174.29" r="5.71"/> 
            <circle cx="290.57" cy="174.29" r="5.71"/> 
            <circle cx="304.87" cy="174.29" r="5.71"/> 
            <circle cx="319.17" cy="174.29" r="5.71"/> 
            <circle cx="333.47" cy="174.29" r="5.71"/> 
            <circle cx="347.76" cy="174.29" r="5.71"/> 
        </g>
    </g>
</svg>
