<?xml version="1.0" encoding="UTF-8" standalone="no"?>
<svg xmlns:svg="http://www.w3.org/2000/svg"
     xmlns="http://www.w3.org/2000/svg" version="1.1"
     width="360" height="185">
    <!-- Created with the Wikimedia parliament diagram creator (http://parliamentdiagram.toolforge.org/parliamentinputform.html) -->
    <g>
        <text x="175" y="175" 
              style="font-size:36px;font-weight:bold;text-align:center;text-anchor:middle;font-family:sans-serif">
            400
        </text>
        <g style="fill:#4165d2; stroke-width:0.00; stroke:#000000" 
           id="0_Democrat"> 
            <title>b'Democrat'</title>            <circle cx="9.58" cy="176.36" r="3.64"/> 
            <circle cx="18.68" cy="176.36" r="3.64"/> 
            <circle cx="27.77" cy="176.36" r="3.64"/> 
            <circle cx="36.86" cy="176.36" r="3.64"/> 
            <circle cx="45.96" cy="176.36" r="3.64"/> 
            <circle cx="55.05" cy="176.36" r="3.64"/> 
            <circle cx="64.15" cy="176.36" r="3.64"/> 
            <circle cx="73.24" cy="176.37" r="3.64"/> 
            <circle cx="82.34" cy="176.37" r="3.64"/> 
            <circle cx="91.44" cy="176.37" r="3.64"/> 
            <circle cx="100.54" cy="176.37" r="3.64"/> 
            <circle cx="10.15" cy="165.60" r="3.64"/> 
            <circle cx="19.29" cy="165.52" r="3.64"/> 
            <circle cx="28.43" cy="165.43" r="3.64"/> 
            <circle cx="37.54" cy="165.59" r="3.64"/> 
            <circle cx="46.70" cy="165.50" r="3.64"/> 
            <circle cx="55.86" cy="165.39" r="3.64"/> 
            <circle cx="64.99" cy="165.59" r="3.64"/> 
            <circle cx="74.18" cy="165.47" r="3.64"/> 
            <circle cx="11.40" cy="154.90" r="3.64"/> 
            <circle cx="83.38" cy="165.32" r="3.64"/> 
            <circle cx="20.63" cy="154.74" r="3.64"/> 
            <circle cx="92.54" cy="165.58" r="3.64"/> 
            <circle cx="29.87" cy="154.57" r="3.64"/> 
            <circle cx="39.03" cy="154.91" r="3.64"/> 
            <circle cx="101.80" cy="165.42" r="3.64"/> 
            <circle cx="48.31" cy="154.73" r="3.64"/> 
            <circle cx="57.62" cy="154.52" r="3.64"/> 
            <circle cx="13.33" cy="144.29" r="3.64"/> 
            <circle cx="66.83" cy="154.94" r="3.64"/> 
            <circle cx="22.69" cy="144.08" r="3.64"/> 
            <circle cx="76.22" cy="154.72" r="3.64"/> 
            <circle cx="32.08" cy="143.84" r="3.64"/> 
            <circle cx="41.32" cy="144.36" r="3.64"/> 
            <circle cx="85.67" cy="154.46" r="3.64"/> 
            <circle cx="50.80" cy="144.12" r="3.64"/> 
            <circle cx="15.92" cy="133.83" r="3.64"/> 
            <circle cx="94.96" cy="155.01" r="3.64"/> 
            <circle cx="25.46" cy="133.58" r="3.64"/> 
            <circle cx="60.34" cy="143.85" r="3.64"/> 
            <circle cx="69.66" cy="144.50" r="3.64"/> 
            <circle cx="35.06" cy="133.30" r="3.64"/> 
            <circle cx="104.57" cy="154.75" r="3.64"/> 
            <circle cx="44.40" cy="134.02" r="3.64"/> 
            <circle cx="19.16" cy="123.55" r="3.64"/> 
            <circle cx="79.35" cy="144.24" r="3.64"/> 
            <circle cx="54.14" cy="133.76" r="3.64"/> 
            <circle cx="28.93" cy="123.29" r="3.64"/> 
            <circle cx="89.17" cy="143.93" r="3.64"/> 
            <circle cx="63.99" cy="133.46" r="3.64"/> 
            <circle cx="38.80" cy="123.01" r="3.64"/> 
            <circle cx="23.05" cy="113.50" r="3.64"/> 
            <circle cx="48.25" cy="123.94" r="3.64"/> 
            <circle cx="73.45" cy="134.38" r="3.64"/> 
            <circle cx="98.64" cy="144.82" r="3.64"/> 
            <circle cx="33.09" cy="113.26" r="3.64"/> 
            <circle cx="58.30" cy="123.69" r="3.64"/> 
            <circle cx="83.53" cy="134.13" r="3.64"/> 
            <circle cx="43.26" cy="113.00" r="3.64"/> 
            <circle cx="108.78" cy="144.57" r="3.64"/> 
            <circle cx="27.57" cy="103.71" r="3.64"/> 
            <circle cx="68.53" cy="123.44" r="3.64"/> 
            <circle cx="52.85" cy="114.17" r="3.64"/> 
            <circle cx="93.85" cy="133.87" r="3.64"/> 
            <circle cx="37.91" cy="103.53" r="3.64"/> 
            <circle cx="78.16" cy="124.65" r="3.64"/> 
            <circle cx="63.27" cy="114.00" r="3.64"/> 
            <circle cx="32.70" cy="94.23" r="3.64"/> 
            <circle cx="48.43" cy="103.35" r="3.64"/> 
            <circle cx="103.55" cy="135.15" r="3.64"/> 
            <circle cx="88.73" cy="124.51" r="3.64"/> 
            <circle cx="58.17" cy="104.78" r="3.64"/> 
            <circle cx="73.94" cy="113.85" r="3.64"/> 
            <circle cx="43.37" cy="94.14" r="3.64"/> 
            <circle cx="38.41" cy="85.09" r="3.64"/> 
            <circle cx="83.76" cy="115.40" r="3.64"/> 
            <circle cx="69.02" cy="104.75" r="3.64"/> 
            <circle cx="54.28" cy="94.09" r="3.64"/> 
            <circle cx="114.36" cy="135.07" r="3.64"/> 
            <circle cx="99.63" cy="124.40" r="3.64"/> 
            <circle cx="49.46" cy="85.15" r="3.64"/> 
            <circle cx="64.18" cy="95.82" r="3.64"/> 
            <circle cx="80.17" cy="104.77" r="3.64"/> 
            <circle cx="94.88" cy="115.46" r="3.64"/> 
            <circle cx="109.60" cy="126.15" r="3.64"/> 
            <circle cx="44.69" cy="76.33" r="3.64"/> 
            <circle cx="60.78" cy="85.27" r="3.64"/> 
            <circle cx="75.49" cy="95.99" r="3.64"/> 
            <circle cx="90.20" cy="106.72" r="3.64"/> 
            <circle cx="56.14" cy="76.58" r="3.64"/> 
            <circle cx="70.85" cy="87.34" r="3.64"/> 
            <circle cx="51.52" cy="67.99" r="3.64"/> 
            <circle cx="106.45" cy="115.65" r="3.64"/> 
            <circle cx="87.18" cy="96.28" r="3.64"/> 
            <circle cx="121.20" cy="126.43" r="3.64"/> 
            <circle cx="67.90" cy="76.95" r="3.64"/> 
            <circle cx="101.93" cy="107.10" r="3.64"/> 
            <circle cx="82.65" cy="87.78" r="3.64"/> 
            <circle cx="63.37" cy="68.48" r="3.64"/> 
            <circle cx="116.70" cy="117.96" r="3.64"/> 
            <circle cx="97.42" cy="98.67" r="3.64"/> 
            <circle cx="78.13" cy="79.38" r="3.64"/> 
            <circle cx="58.85" cy="60.09" r="3.64"/> 
            <circle cx="75.60" cy="69.15" r="3.64"/> 
            <circle cx="94.90" cy="88.44" r="3.64"/> 
            <circle cx="71.14" cy="60.89" r="3.64"/> 
            <circle cx="114.22" cy="107.73" r="3.64"/> 
            <circle cx="90.46" cy="80.19" r="3.64"/> 
            <circle cx="66.67" cy="52.68" r="3.64"/> 
            <circle cx="109.79" cy="99.49" r="3.64"/> 
            <circle cx="86.00" cy="71.99" r="3.64"/> 
            <circle cx="105.35" cy="91.33" r="3.64"/> 
            <circle cx="129.17" cy="118.81" r="3.64"/> 
            <circle cx="83.84" cy="61.93" r="3.64"/> 
            <circle cx="79.40" cy="53.84" r="3.64"/> 
            <circle cx="124.74" cy="110.70" r="3.64"/> 
            <circle cx="74.95" cy="45.77" r="3.64"/> 
            <circle cx="103.29" cy="81.31" r="3.64"/> 
            <circle cx="98.85" cy="73.25" r="3.64"/> 
            <circle cx="94.40" cy="65.22" r="3.64"/> 
            <circle cx="122.84" cy="100.74" r="3.64"/> 
            <circle cx="118.40" cy="92.74" r="3.64"/> 
            <circle cx="92.57" cy="55.33" r="3.64"/> 
            <circle cx="113.94" cy="84.76" r="3.64"/> 
            <circle cx="88.11" cy="47.36" r="3.64"/> 
            <circle cx="83.64" cy="39.40" r="3.64"/> 
            <circle cx="112.27" cy="74.94" r="3.64"/> 
            <circle cx="107.78" cy="67.02" r="3.64"/> 
            <circle cx="103.29" cy="59.10" r="3.64"/> 
            <circle cx="138.11" cy="112.38" r="3.64"/> 
            <circle cx="133.62" cy="104.47" r="3.64"/> 
            <circle cx="101.76" cy="49.36" r="3.64"/> 
            <circle cx="97.24" cy="41.47" r="3.64"/> 
            <circle cx="92.72" cy="33.59" r="3.64"/> 
            <circle cx="123.10" cy="79.02" r="3.64"/> 
            <circle cx="127.64" cy="86.89" r="3.64"/> 
            <circle cx="132.19" cy="94.77" r="3.64"/> 
            <circle cx="112.61" cy="53.67" r="3.64"/> 
            <circle cx="117.19" cy="61.53" r="3.64"/> 
            <circle cx="121.78" cy="69.39" r="3.64"/> 
            <circle cx="102.15" cy="28.36" r="3.64"/> 
            <circle cx="106.75" cy="36.22" r="3.64"/> 
            <circle cx="111.35" cy="44.08" r="3.64"/> 
            <circle cx="143.18" cy="99.37" r="3.64"/> 
            <circle cx="132.75" cy="74.16" r="3.64"/> 
            <circle cx="147.86" cy="107.24" r="3.64"/> 
            <circle cx="122.32" cy="48.95" r="3.64"/> 
            <circle cx="111.89" cy="23.75" r="3.64"/> 
            <circle cx="137.44" cy="82.03" r="3.64"/> 
            <circle cx="127.01" cy="56.82" r="3.64"/> 
            <circle cx="116.58" cy="31.62" r="3.64"/> 
            <circle cx="142.16" cy="89.90" r="3.64"/> 
            <circle cx="131.73" cy="64.69" r="3.64"/> 
            <circle cx="121.30" cy="39.50" r="3.64"/> 
            <circle cx="121.90" cy="19.75" r="3.64"/> 
            <circle cx="132.35" cy="44.98" r="3.64"/> 
            <circle cx="126.71" cy="27.69" r="3.64"/> 
            <circle cx="142.82" cy="70.22" r="3.64"/> 
            <circle cx="137.19" cy="52.93" r="3.64"/> 
            <circle cx="131.55" cy="35.64" r="3.64"/> 
            <circle cx="142.07" cy="60.90" r="3.64"/> 
            <circle cx="147.68" cy="78.19" r="3.64"/> 
            <circle cx="153.30" cy="95.48" r="3.64"/> 
            <circle cx="132.14" cy="16.40" r="3.64"/> 
            <circle cx="152.62" cy="86.19" r="3.64"/> 
            <circle cx="158.22" cy="103.49" r="3.64"/> 
            <circle cx="137.07" cy="24.45" r="3.64"/> 
            <circle cx="142.66" cy="41.77" r="3.64"/> 
            <circle cx="142.06" cy="32.53" r="3.64"/> 
            <circle cx="147.64" cy="49.87" r="3.64"/> 
            <circle cx="153.21" cy="67.23" r="3.64"/> 
            <circle cx="142.58" cy="13.70" r="3.64"/> 
            <circle cx="152.69" cy="58.02" r="3.64"/> 
            <circle cx="158.27" cy="75.42" r="3.64"/> 
            <circle cx="147.63" cy="21.92" r="3.64"/> 
            <circle cx="153.17" cy="39.35" r="3.64"/> 
            <circle cx="163.82" cy="92.85" r="3.64"/> 
            <circle cx="152.76" cy="30.18" r="3.64"/> 
            <circle cx="163.43" cy="83.69" r="3.64"/> 
            <circle cx="158.31" cy="47.68" r="3.64"/> 
            <circle cx="153.16" cy="11.67" r="3.64"/> 
            <circle cx="163.83" cy="65.22" r="3.64"/> 
            <circle cx="169.01" cy="101.22" r="3.64"/> 
            <circle cx="158.34" cy="20.10" r="3.64"/> 
            <circle cx="163.53" cy="56.09" r="3.64"/> 
            <circle cx="163.84" cy="37.73" r="3.64"/> 
            <circle cx="163.60" cy="28.61" r="3.64"/> 
            <circle cx="169.08" cy="73.74" r="3.64"/> 
        </g>
        <g style="fill:#e3bb1c; stroke-width:0.00; stroke:#000000" 
           id="1_Other"> 
            <title>b'Other'</title>        </g>
        <g style="fill:#dc3d3d; stroke-width:0.00; stroke:#000000" 
           id="2_Republican"> 
            <title>b'Republican'</title>            <circle cx="163.85" cy="10.31" r="3.64"/> 
            <circle cx="169.12" cy="46.35" r="3.64"/> 
            <circle cx="169.15" cy="19.00" r="3.64"/> 
            <circle cx="174.58" cy="91.53" r="3.64"/> 
            <circle cx="174.45" cy="82.43" r="3.64"/> 
            <circle cx="174.59" cy="64.22" r="3.64"/> 
            <circle cx="174.50" cy="55.12" r="3.64"/> 
            <circle cx="174.60" cy="36.92" r="3.64"/> 
            <circle cx="174.52" cy="27.83" r="3.64"/> 
            <circle cx="174.61" cy="9.63" r="3.64"/> 
            <circle cx="180.00" cy="18.64" r="3.64"/> 
            <circle cx="180.00" cy="45.91" r="3.64"/> 
            <circle cx="180.00" cy="73.18" r="3.64"/> 
            <circle cx="180.00" cy="100.45" r="3.64"/> 
            <circle cx="185.39" cy="9.63" r="3.64"/> 
            <circle cx="185.48" cy="27.83" r="3.64"/> 
            <circle cx="185.40" cy="36.92" r="3.64"/> 
            <circle cx="185.50" cy="55.12" r="3.64"/> 
            <circle cx="185.41" cy="64.22" r="3.64"/> 
            <circle cx="185.55" cy="82.43" r="3.64"/> 
            <circle cx="185.42" cy="91.53" r="3.64"/> 
            <circle cx="190.85" cy="19.00" r="3.64"/> 
            <circle cx="190.88" cy="46.35" r="3.64"/> 
            <circle cx="196.15" cy="10.31" r="3.64"/> 
            <circle cx="190.92" cy="73.74" r="3.64"/> 
            <circle cx="196.40" cy="28.61" r="3.64"/> 
            <circle cx="196.16" cy="37.73" r="3.64"/> 
            <circle cx="196.47" cy="56.09" r="3.64"/> 
            <circle cx="201.66" cy="20.10" r="3.64"/> 
            <circle cx="190.99" cy="101.22" r="3.64"/> 
            <circle cx="196.17" cy="65.22" r="3.64"/> 
            <circle cx="206.84" cy="11.67" r="3.64"/> 
            <circle cx="201.69" cy="47.68" r="3.64"/> 
            <circle cx="196.57" cy="83.69" r="3.64"/> 
            <circle cx="207.24" cy="30.18" r="3.64"/> 
            <circle cx="196.18" cy="92.85" r="3.64"/> 
            <circle cx="206.83" cy="39.35" r="3.64"/> 
            <circle cx="212.37" cy="21.92" r="3.64"/> 
            <circle cx="201.73" cy="75.42" r="3.64"/> 
            <circle cx="207.31" cy="58.02" r="3.64"/> 
            <circle cx="217.42" cy="13.70" r="3.64"/> 
            <circle cx="206.79" cy="67.23" r="3.64"/> 
            <circle cx="212.36" cy="49.87" r="3.64"/> 
            <circle cx="217.94" cy="32.53" r="3.64"/> 
            <circle cx="217.34" cy="41.77" r="3.64"/> 
            <circle cx="222.93" cy="24.45" r="3.64"/> 
            <circle cx="201.78" cy="103.49" r="3.64"/> 
            <circle cx="207.38" cy="86.19" r="3.64"/> 
            <circle cx="227.86" cy="16.40" r="3.64"/> 
            <circle cx="206.70" cy="95.48" r="3.64"/> 
            <circle cx="212.32" cy="78.19" r="3.64"/> 
            <circle cx="217.93" cy="60.90" r="3.64"/> 
            <circle cx="228.45" cy="35.64" r="3.64"/> 
            <circle cx="222.81" cy="52.93" r="3.64"/> 
            <circle cx="217.18" cy="70.22" r="3.64"/> 
            <circle cx="233.29" cy="27.69" r="3.64"/> 
            <circle cx="227.65" cy="44.98" r="3.64"/> 
            <circle cx="238.10" cy="19.75" r="3.64"/> 
            <circle cx="238.70" cy="39.50" r="3.64"/> 
            <circle cx="228.27" cy="64.69" r="3.64"/> 
            <circle cx="217.84" cy="89.90" r="3.64"/> 
            <circle cx="243.42" cy="31.62" r="3.64"/> 
            <circle cx="232.99" cy="56.82" r="3.64"/> 
            <circle cx="222.56" cy="82.03" r="3.64"/> 
            <circle cx="248.11" cy="23.75" r="3.64"/> 
            <circle cx="237.68" cy="48.95" r="3.64"/> 
            <circle cx="212.14" cy="107.24" r="3.64"/> 
            <circle cx="227.25" cy="74.16" r="3.64"/> 
            <circle cx="216.82" cy="99.37" r="3.64"/> 
            <circle cx="248.65" cy="44.08" r="3.64"/> 
            <circle cx="253.25" cy="36.22" r="3.64"/> 
            <circle cx="257.85" cy="28.36" r="3.64"/> 
            <circle cx="238.22" cy="69.39" r="3.64"/> 
            <circle cx="242.81" cy="61.53" r="3.64"/> 
            <circle cx="247.39" cy="53.67" r="3.64"/> 
            <circle cx="227.81" cy="94.77" r="3.64"/> 
            <circle cx="232.36" cy="86.89" r="3.64"/> 
            <circle cx="236.90" cy="79.02" r="3.64"/> 
            <circle cx="267.28" cy="33.59" r="3.64"/> 
            <circle cx="262.76" cy="41.47" r="3.64"/> 
            <circle cx="258.24" cy="49.36" r="3.64"/> 
            <circle cx="226.38" cy="104.47" r="3.64"/> 
            <circle cx="221.89" cy="112.38" r="3.64"/> 
            <circle cx="256.71" cy="59.10" r="3.64"/> 
            <circle cx="252.22" cy="67.02" r="3.64"/> 
            <circle cx="247.73" cy="74.94" r="3.64"/> 
            <circle cx="276.36" cy="39.40" r="3.64"/> 
            <circle cx="271.89" cy="47.36" r="3.64"/> 
            <circle cx="246.06" cy="84.76" r="3.64"/> 
            <circle cx="267.43" cy="55.33" r="3.64"/> 
            <circle cx="241.60" cy="92.74" r="3.64"/> 
            <circle cx="237.16" cy="100.74" r="3.64"/> 
            <circle cx="265.60" cy="65.22" r="3.64"/> 
            <circle cx="261.15" cy="73.25" r="3.64"/> 
            <circle cx="256.71" cy="81.31" r="3.64"/> 
            <circle cx="285.05" cy="45.77" r="3.64"/> 
            <circle cx="235.26" cy="110.70" r="3.64"/> 
            <circle cx="280.60" cy="53.84" r="3.64"/> 
            <circle cx="276.16" cy="61.93" r="3.64"/> 
            <circle cx="230.83" cy="118.81" r="3.64"/> 
            <circle cx="254.65" cy="91.33" r="3.64"/> 
            <circle cx="274.00" cy="71.99" r="3.64"/> 
            <circle cx="250.21" cy="99.49" r="3.64"/> 
            <circle cx="293.33" cy="52.68" r="3.64"/> 
            <circle cx="269.54" cy="80.19" r="3.64"/> 
            <circle cx="245.78" cy="107.73" r="3.64"/> 
            <circle cx="288.86" cy="60.89" r="3.64"/> 
            <circle cx="265.10" cy="88.44" r="3.64"/> 
            <circle cx="284.40" cy="69.15" r="3.64"/> 
            <circle cx="301.15" cy="60.09" r="3.64"/> 
            <circle cx="281.87" cy="79.38" r="3.64"/> 
            <circle cx="262.58" cy="98.67" r="3.64"/> 
            <circle cx="243.30" cy="117.96" r="3.64"/> 
            <circle cx="296.63" cy="68.48" r="3.64"/> 
            <circle cx="277.35" cy="87.78" r="3.64"/> 
            <circle cx="258.07" cy="107.10" r="3.64"/> 
            <circle cx="292.10" cy="76.95" r="3.64"/> 
            <circle cx="238.80" cy="126.43" r="3.64"/> 
            <circle cx="272.82" cy="96.28" r="3.64"/> 
            <circle cx="253.55" cy="115.65" r="3.64"/> 
            <circle cx="308.48" cy="67.99" r="3.64"/> 
            <circle cx="289.15" cy="87.34" r="3.64"/> 
            <circle cx="303.86" cy="76.58" r="3.64"/> 
            <circle cx="269.80" cy="106.72" r="3.64"/> 
            <circle cx="284.51" cy="95.99" r="3.64"/> 
            <circle cx="299.22" cy="85.27" r="3.64"/> 
            <circle cx="315.31" cy="76.33" r="3.64"/> 
            <circle cx="250.40" cy="126.15" r="3.64"/> 
            <circle cx="265.12" cy="115.46" r="3.64"/> 
            <circle cx="279.83" cy="104.77" r="3.64"/> 
            <circle cx="295.82" cy="95.82" r="3.64"/> 
            <circle cx="310.54" cy="85.15" r="3.64"/> 
            <circle cx="260.37" cy="124.40" r="3.64"/> 
            <circle cx="245.64" cy="135.07" r="3.64"/> 
            <circle cx="305.72" cy="94.09" r="3.64"/> 
            <circle cx="290.98" cy="104.75" r="3.64"/> 
            <circle cx="276.24" cy="115.40" r="3.64"/> 
            <circle cx="321.59" cy="85.09" r="3.64"/> 
            <circle cx="316.63" cy="94.14" r="3.64"/> 
            <circle cx="286.06" cy="113.85" r="3.64"/> 
            <circle cx="301.83" cy="104.78" r="3.64"/> 
            <circle cx="271.27" cy="124.51" r="3.64"/> 
            <circle cx="256.45" cy="135.15" r="3.64"/> 
            <circle cx="311.57" cy="103.35" r="3.64"/> 
            <circle cx="327.30" cy="94.23" r="3.64"/> 
            <circle cx="296.73" cy="114.00" r="3.64"/> 
            <circle cx="281.84" cy="124.65" r="3.64"/> 
            <circle cx="322.09" cy="103.53" r="3.64"/> 
            <circle cx="266.15" cy="133.87" r="3.64"/> 
            <circle cx="307.15" cy="114.17" r="3.64"/> 
            <circle cx="291.47" cy="123.44" r="3.64"/> 
            <circle cx="332.43" cy="103.71" r="3.64"/> 
            <circle cx="251.22" cy="144.57" r="3.64"/> 
            <circle cx="316.74" cy="113.00" r="3.64"/> 
            <circle cx="276.47" cy="134.13" r="3.64"/> 
            <circle cx="301.70" cy="123.69" r="3.64"/> 
            <circle cx="326.91" cy="113.26" r="3.64"/> 
            <circle cx="261.36" cy="144.82" r="3.64"/> 
            <circle cx="286.55" cy="134.38" r="3.64"/> 
            <circle cx="311.75" cy="123.94" r="3.64"/> 
            <circle cx="336.95" cy="113.50" r="3.64"/> 
            <circle cx="321.20" cy="123.01" r="3.64"/> 
            <circle cx="296.01" cy="133.46" r="3.64"/> 
            <circle cx="270.83" cy="143.93" r="3.64"/> 
            <circle cx="331.07" cy="123.29" r="3.64"/> 
            <circle cx="305.86" cy="133.76" r="3.64"/> 
            <circle cx="280.65" cy="144.24" r="3.64"/> 
            <circle cx="340.84" cy="123.55" r="3.64"/> 
            <circle cx="315.60" cy="134.02" r="3.64"/> 
            <circle cx="255.43" cy="154.75" r="3.64"/> 
            <circle cx="324.94" cy="133.30" r="3.64"/> 
            <circle cx="290.34" cy="144.50" r="3.64"/> 
            <circle cx="299.66" cy="143.85" r="3.64"/> 
            <circle cx="334.54" cy="133.58" r="3.64"/> 
            <circle cx="265.04" cy="155.01" r="3.64"/> 
            <circle cx="344.08" cy="133.83" r="3.64"/> 
            <circle cx="309.20" cy="144.12" r="3.64"/> 
            <circle cx="274.33" cy="154.46" r="3.64"/> 
            <circle cx="318.68" cy="144.36" r="3.64"/> 
            <circle cx="327.92" cy="143.84" r="3.64"/> 
            <circle cx="283.78" cy="154.72" r="3.64"/> 
            <circle cx="337.31" cy="144.08" r="3.64"/> 
            <circle cx="293.17" cy="154.94" r="3.64"/> 
            <circle cx="346.67" cy="144.29" r="3.64"/> 
            <circle cx="302.38" cy="154.52" r="3.64"/> 
            <circle cx="311.69" cy="154.73" r="3.64"/> 
            <circle cx="258.20" cy="165.42" r="3.64"/> 
            <circle cx="320.97" cy="154.91" r="3.64"/> 
            <circle cx="330.13" cy="154.57" r="3.64"/> 
            <circle cx="267.46" cy="165.58" r="3.64"/> 
            <circle cx="339.37" cy="154.74" r="3.64"/> 
            <circle cx="276.62" cy="165.32" r="3.64"/> 
            <circle cx="348.60" cy="154.90" r="3.64"/> 
            <circle cx="285.82" cy="165.47" r="3.64"/> 
            <circle cx="295.01" cy="165.59" r="3.64"/> 
            <circle cx="304.14" cy="165.39" r="3.64"/> 
            <circle cx="313.30" cy="165.50" r="3.64"/> 
            <circle cx="322.46" cy="165.59" r="3.64"/> 
            <circle cx="331.57" cy="165.43" r="3.64"/> 
            <circle cx="340.71" cy="165.52" r="3.64"/> 
            <circle cx="349.85" cy="165.60" r="3.64"/> 
            <circle cx="259.46" cy="176.37" r="3.64"/> 
            <circle cx="268.56" cy="176.37" r="3.64"/> 
            <circle cx="277.66" cy="176.37" r="3.64"/> 
            <circle cx="286.76" cy="176.37" r="3.64"/> 
            <circle cx="295.85" cy="176.36" r="3.64"/> 
            <circle cx="304.95" cy="176.36" r="3.64"/> 
            <circle cx="314.04" cy="176.36" r="3.64"/> 
            <circle cx="323.14" cy="176.36" r="3.64"/> 
            <circle cx="332.23" cy="176.36" r="3.64"/> 
            <circle cx="341.32" cy="176.36" r="3.64"/> 
            <circle cx="350.42" cy="176.36" r="3.64"/> 
        </g>
        <g style="fill:#808080; stroke-width:0.00; stroke:#000000" 
           id="3_Vacant"> 
            <title>b'Vacant'</title>        </g>
    </g>
</svg>
