<?xml version="1.0" encoding="UTF-8" standalone="no"?>
<svg xmlns:svg="http://www.w3.org/2000/svg"
     xmlns="http://www.w3.org/2000/svg" version="1.1"
     width="360" height="185">
    <!-- Created with the Wikimedia parliament diagram creator (http://parliamentdiagram.toolforge.org/parliamentinputform.html) -->
    <g>
        <text x="175" y="175" 
              style="font-size:36px;font-weight:bold;text-align:center;text-anchor:middle;font-family:sans-serif">
            70
        </text>
        <g style="fill:#4165d2; stroke-width:0.00; stroke:#000000" 
           id="0_Democrat"> 
            <title>b'Democrat'</title>            <circle cx="15.19" cy="172.01" r="8.00"/> 
            <circle cx="35.22" cy="172.01" r="8.00"/> 
            <circle cx="55.26" cy="172.01" r="8.00"/> 
            <circle cx="75.30" cy="172.02" r="8.00"/> 
            <circle cx="95.38" cy="172.02" r="8.00"/> 
            <circle cx="18.89" cy="144.38" r="8.00"/> 
            <circle cx="39.77" cy="143.11" r="8.00"/> 
            <circle cx="60.43" cy="143.56" r="8.00"/> 
            <circle cx="81.29" cy="144.21" r="8.00"/> 
            <circle cx="27.19" cy="117.76" r="8.00"/> 
            <circle cx="50.03" cy="115.72" r="8.00"/> 
            <circle cx="103.96" cy="142.02" r="8.00"/> 
            <circle cx="72.00" cy="117.07" r="8.00"/> 
            <circle cx="39.85" cy="92.93" r="8.00"/> 
            <circle cx="94.52" cy="119.02" r="8.00"/> 
            <circle cx="65.58" cy="90.94" r="8.00"/> 
            <circle cx="56.50" cy="70.58" r="8.00"/> 
            <circle cx="89.35" cy="93.94" r="8.00"/> 
            <circle cx="122.79" cy="117.14" r="8.00"/> 
            <circle cx="85.78" cy="69.78" r="8.00"/> 
            <circle cx="114.03" cy="98.32" r="8.00"/> 
            <circle cx="76.69" cy="51.35" r="8.00"/> 
            <circle cx="111.54" cy="75.41" r="8.00"/> 
            <circle cx="99.82" cy="35.79" r="8.00"/> 
            <circle cx="109.82" cy="53.11" r="8.00"/> 
            <circle cx="138.37" cy="83.60" r="8.00"/> 
            <circle cx="149.33" cy="100.73" r="8.00"/> 
            <circle cx="137.40" cy="62.48" r="8.00"/> 
            <circle cx="125.24" cy="24.35" r="8.00"/> 
            <circle cx="136.72" cy="41.61" r="8.00"/> 
            <circle cx="152.22" cy="17.35" r="8.00"/> 
            <circle cx="165.78" cy="75.97" r="8.00"/> 
            <circle cx="165.54" cy="55.84" r="8.00"/> 
            <circle cx="165.37" cy="35.74" r="8.00"/> 
            <circle cx="180.00" cy="15.00" r="8.00"/> 
            <circle cx="180.00" cy="95.00" r="8.00"/> 
            <circle cx="194.63" cy="35.74" r="8.00"/> 
            <circle cx="194.46" cy="55.84" r="8.00"/> 
            <circle cx="194.22" cy="75.97" r="8.00"/> 
            <circle cx="207.78" cy="17.35" r="8.00"/> 
            <circle cx="223.28" cy="41.61" r="8.00"/> 
            <circle cx="234.76" cy="24.35" r="8.00"/> 
            <circle cx="222.60" cy="62.48" r="8.00"/> 
            <circle cx="210.67" cy="100.73" r="8.00"/> 
            <circle cx="221.63" cy="83.60" r="8.00"/> 
        </g>
        <g style="fill:#e3bb1c; stroke-width:0.00; stroke:#000000" 
           id="1_Other"> 
            <title>b'Other'</title>            <circle cx="250.18" cy="53.11" r="8.00"/> 
        </g>
        <g style="fill:#dc3d3d; stroke-width:0.00; stroke:#000000" 
           id="2_Republican"> 
            <title>b'Republican'</title>            <circle cx="260.18" cy="35.79" r="8.00"/> 
            <circle cx="248.46" cy="75.41" r="8.00"/> 
            <circle cx="283.31" cy="51.35" r="8.00"/> 
            <circle cx="245.97" cy="98.32" r="8.00"/> 
            <circle cx="274.22" cy="69.78" r="8.00"/> 
            <circle cx="237.21" cy="117.14" r="8.00"/> 
            <circle cx="270.65" cy="93.94" r="8.00"/> 
            <circle cx="303.50" cy="70.58" r="8.00"/> 
            <circle cx="294.42" cy="90.94" r="8.00"/> 
            <circle cx="265.48" cy="119.02" r="8.00"/> 
            <circle cx="320.15" cy="92.93" r="8.00"/> 
            <circle cx="288.00" cy="117.07" r="8.00"/> 
            <circle cx="256.04" cy="142.02" r="8.00"/> 
            <circle cx="309.97" cy="115.72" r="8.00"/> 
            <circle cx="332.81" cy="117.76" r="8.00"/> 
            <circle cx="278.71" cy="144.21" r="8.00"/> 
            <circle cx="299.57" cy="143.56" r="8.00"/> 
            <circle cx="320.23" cy="143.11" r="8.00"/> 
            <circle cx="341.11" cy="144.38" r="8.00"/> 
            <circle cx="264.62" cy="172.02" r="8.00"/> 
            <circle cx="284.70" cy="172.02" r="8.00"/> 
            <circle cx="304.74" cy="172.01" r="8.00"/> 
            <circle cx="324.78" cy="172.01" r="8.00"/> 
            <circle cx="344.81" cy="172.01" r="8.00"/> 
        </g>
    </g>
</svg>
