<?xml version="1.0" encoding="UTF-8" standalone="no"?>
<svg xmlns:svg="http://www.w3.org/2000/svg"
     xmlns="http://www.w3.org/2000/svg" version="1.1"
     width="360" height="185">
    <!-- Created with the Wikimedia parliament diagram creator (http://parliamentdiagram.toolforge.org/parliamentinputform.html) -->
    <g>
        <text x="175" y="175" 
              style="font-size:36px;font-weight:bold;text-align:center;text-anchor:middle;font-family:sans-serif">
            94
        </text>
        <g style="fill:#4165d2; stroke-width:0.00; stroke:#000000" 
           id="0_Democrat"> 
            <title>b'Democrat'</title>            <circle cx="15.19" cy="172.01" r="8.00"/> 
            <circle cx="35.22" cy="172.01" r="8.00"/> 
            <circle cx="55.26" cy="172.01" r="8.00"/> 
            <circle cx="75.30" cy="172.02" r="8.00"/> 
            <circle cx="95.38" cy="172.02" r="8.00"/> 
            <circle cx="17.69" cy="150.32" r="8.00"/> 
            <circle cx="37.88" cy="151.27" r="8.00"/> 
            <circle cx="58.33" cy="151.33" r="8.00"/> 
            <circle cx="78.96" cy="151.45" r="8.00"/> 
            <circle cx="23.03" cy="129.16" r="8.00"/> 
            <circle cx="99.87" cy="151.64" r="8.00"/> 
            <circle cx="43.49" cy="131.12" r="8.00"/> 
            <circle cx="64.81" cy="131.46" r="8.00"/> 
            <circle cx="31.11" cy="108.89" r="8.00"/> 
        </g>
        <g style="fill:#e3bb1c; stroke-width:0.00; stroke:#000000" 
           id="1_Other"> 
            <title>b'Other'</title>        </g>
        <g style="fill:#dc3d3d; stroke-width:0.00; stroke:#000000" 
           id="2_Republican"> 
            <title>b'Republican'</title>            <circle cx="86.61" cy="132.01" r="8.00"/> 
            <circle cx="51.94" cy="111.99" r="8.00"/> 
            <circle cx="74.51" cy="112.94" r="8.00"/> 
            <circle cx="41.80" cy="89.86" r="8.00"/> 
            <circle cx="109.19" cy="132.97" r="8.00"/> 
            <circle cx="63.05" cy="94.28" r="8.00"/> 
            <circle cx="97.96" cy="114.47" r="8.00"/> 
            <circle cx="54.91" cy="72.40" r="8.00"/> 
            <circle cx="87.16" cy="96.30" r="8.00"/> 
            <circle cx="76.60" cy="78.35" r="8.00"/> 
            <circle cx="122.79" cy="117.14" r="8.00"/> 
            <circle cx="70.20" cy="56.83" r="8.00"/> 
            <circle cx="112.56" cy="99.52" r="8.00"/> 
            <circle cx="102.41" cy="82.00" r="8.00"/> 
            <circle cx="92.30" cy="64.53" r="8.00"/> 
            <circle cx="87.42" cy="43.42" r="8.00"/> 
            <circle cx="109.82" cy="53.11" r="8.00"/> 
            <circle cx="119.82" cy="70.44" r="8.00"/> 
            <circle cx="129.82" cy="87.76" r="8.00"/> 
            <circle cx="139.83" cy="105.09" r="8.00"/> 
            <circle cx="106.26" cy="32.40" r="8.00"/> 
            <circle cx="128.80" cy="44.34" r="8.00"/> 
            <circle cx="138.92" cy="61.94" r="8.00"/> 
            <circle cx="126.39" cy="23.95" r="8.00"/> 
            <circle cx="149.08" cy="79.66" r="8.00"/> 
            <circle cx="159.29" cy="97.56" r="8.00"/> 
            <circle cx="148.85" cy="38.39" r="8.00"/> 
            <circle cx="147.45" cy="18.24" r="8.00"/> 
            <circle cx="159.17" cy="56.75" r="8.00"/> 
            <circle cx="169.55" cy="75.52" r="8.00"/> 
            <circle cx="169.54" cy="35.38" r="8.00"/> 
            <circle cx="169.09" cy="15.36" r="8.00"/> 
            <circle cx="180.00" cy="55.00" r="8.00"/> 
            <circle cx="180.00" cy="95.00" r="8.00"/> 
            <circle cx="190.91" cy="15.36" r="8.00"/> 
            <circle cx="190.46" cy="35.38" r="8.00"/> 
            <circle cx="190.45" cy="75.52" r="8.00"/> 
            <circle cx="200.83" cy="56.75" r="8.00"/> 
            <circle cx="212.55" cy="18.24" r="8.00"/> 
            <circle cx="211.15" cy="38.39" r="8.00"/> 
            <circle cx="200.71" cy="97.56" r="8.00"/> 
            <circle cx="210.92" cy="79.66" r="8.00"/> 
            <circle cx="233.61" cy="23.95" r="8.00"/> 
            <circle cx="221.08" cy="61.94" r="8.00"/> 
            <circle cx="231.20" cy="44.34" r="8.00"/> 
            <circle cx="253.74" cy="32.40" r="8.00"/> 
            <circle cx="220.17" cy="105.09" r="8.00"/> 
            <circle cx="230.18" cy="87.76" r="8.00"/> 
            <circle cx="240.18" cy="70.44" r="8.00"/> 
            <circle cx="250.18" cy="53.11" r="8.00"/> 
            <circle cx="272.58" cy="43.42" r="8.00"/> 
            <circle cx="267.70" cy="64.53" r="8.00"/> 
            <circle cx="257.59" cy="82.00" r="8.00"/> 
            <circle cx="247.44" cy="99.52" r="8.00"/> 
            <circle cx="289.80" cy="56.83" r="8.00"/> 
            <circle cx="237.21" cy="117.14" r="8.00"/> 
            <circle cx="283.40" cy="78.35" r="8.00"/> 
            <circle cx="272.84" cy="96.30" r="8.00"/> 
            <circle cx="305.09" cy="72.40" r="8.00"/> 
            <circle cx="262.04" cy="114.47" r="8.00"/> 
            <circle cx="296.95" cy="94.28" r="8.00"/> 
            <circle cx="250.81" cy="132.97" r="8.00"/> 
            <circle cx="318.20" cy="89.86" r="8.00"/> 
            <circle cx="285.49" cy="112.94" r="8.00"/> 
            <circle cx="308.06" cy="111.99" r="8.00"/> 
            <circle cx="273.39" cy="132.01" r="8.00"/> 
            <circle cx="328.89" cy="108.89" r="8.00"/> 
            <circle cx="295.19" cy="131.46" r="8.00"/> 
            <circle cx="316.51" cy="131.12" r="8.00"/> 
            <circle cx="260.13" cy="151.64" r="8.00"/> 
            <circle cx="336.97" cy="129.16" r="8.00"/> 
            <circle cx="281.04" cy="151.45" r="8.00"/> 
            <circle cx="301.67" cy="151.33" r="8.00"/> 
            <circle cx="322.12" cy="151.27" r="8.00"/> 
            <circle cx="342.31" cy="150.32" r="8.00"/> 
            <circle cx="264.62" cy="172.02" r="8.00"/> 
            <circle cx="284.70" cy="172.02" r="8.00"/> 
            <circle cx="304.74" cy="172.01" r="8.00"/> 
            <circle cx="324.78" cy="172.01" r="8.00"/> 
            <circle cx="344.81" cy="172.01" r="8.00"/> 
        </g>
    </g>
</svg>
