<?xml version="1.0" encoding="UTF-8" standalone="no"?>
<svg xmlns:svg="http://www.w3.org/2000/svg"
     xmlns="http://www.w3.org/2000/svg" version="1.1"
     width="360" height="185">
    <!-- Created with the Wikimedia parliament diagram creator (http://parliamentdiagram.toolforge.org/parliamentinputform.html) -->
    <g>
        <text x="175" y="175" 
              style="font-size:36px;font-weight:bold;text-align:center;text-anchor:middle;font-family:sans-serif">
            124
        </text>
        <g style="fill:#4165d2; stroke-width:0.00; stroke:#000000" 
           id="0_Democrat"> 
            <title>b'Democrat'</title>            <circle cx="13.47" cy="173.34" r="6.67"/> 
            <circle cx="30.15" cy="173.34" r="6.67"/> 
            <circle cx="46.83" cy="173.34" r="6.67"/> 
            <circle cx="63.52" cy="173.34" r="6.67"/> 
            <circle cx="80.22" cy="173.34" r="6.67"/> 
            <circle cx="96.93" cy="173.35" r="6.67"/> 
            <circle cx="15.29" cy="154.54" r="6.67"/> 
            <circle cx="32.20" cy="154.38" r="6.67"/> 
            <circle cx="49.19" cy="154.19" r="6.67"/> 
            <circle cx="66.28" cy="153.94" r="6.67"/> 
            <circle cx="19.23" cy="136.06" r="6.67"/> 
            <circle cx="83.55" cy="153.60" r="6.67"/> 
            <circle cx="36.65" cy="135.84" r="6.67"/> 
            <circle cx="100.62" cy="154.64" r="6.67"/> 
            <circle cx="54.28" cy="135.58" r="6.67"/> 
            <circle cx="25.23" cy="118.15" r="6.67"/> 
            <circle cx="72.25" cy="135.27" r="6.67"/> 
            <circle cx="43.41" cy="118.01" r="6.67"/> 
            <circle cx="90.74" cy="134.91" r="6.67"/> 
            <circle cx="62.01" cy="117.90" r="6.67"/> 
            <circle cx="33.22" cy="101.04" r="6.67"/> 
            <circle cx="108.47" cy="137.25" r="6.67"/> 
            <circle cx="52.37" cy="101.19" r="6.67"/> 
            <circle cx="81.26" cy="117.86" r="6.67"/> 
            <circle cx="43.10" cy="84.94" r="6.67"/> 
            <circle cx="72.21" cy="101.52" r="6.67"/> 
            <circle cx="101.51" cy="118.04" r="6.67"/> 
            <circle cx="63.40" cy="85.63" r="6.67"/> 
            <circle cx="54.74" cy="70.06" r="6.67"/> 
            <circle cx="93.05" cy="102.21" r="6.67"/> 
            <circle cx="120.06" cy="122.11" r="6.67"/> 
            <circle cx="84.67" cy="86.78" r="6.67"/> 
            <circle cx="76.32" cy="71.60" r="6.67"/> 
            <circle cx="67.98" cy="56.59" r="6.67"/> 
            <circle cx="115.43" cy="103.64" r="6.67"/> 
            <circle cx="107.30" cy="88.75" r="6.67"/> 
            <circle cx="99.12" cy="74.00" r="6.67"/> 
            <circle cx="90.90" cy="59.33" r="6.67"/> 
            <circle cx="82.66" cy="44.71" r="6.67"/> 
            <circle cx="134.79" cy="110.00" r="6.67"/> 
            <circle cx="98.60" cy="34.56" r="6.67"/> 
            <circle cx="106.93" cy="49.00" r="6.67"/> 
            <circle cx="115.27" cy="63.44" r="6.67"/> 
        </g>
        <g style="fill:#e3bb1c; stroke-width:0.00; stroke:#000000" 
           id="1_Other"> 
            <title>b'Other'</title>        </g>
        <g style="fill:#dc3d3d; stroke-width:0.00; stroke:#000000" 
           id="2_Republican"> 
            <title>b'Republican'</title>            <circle cx="123.60" cy="77.87" r="6.67"/> 
            <circle cx="131.94" cy="92.31" r="6.67"/> 
            <circle cx="115.58" cy="26.29" r="6.67"/> 
            <circle cx="124.14" cy="40.79" r="6.67"/> 
            <circle cx="132.77" cy="55.31" r="6.67"/> 
            <circle cx="151.89" cy="101.55" r="6.67"/> 
            <circle cx="141.49" cy="69.87" r="6.67"/> 
            <circle cx="150.37" cy="84.49" r="6.67"/> 
            <circle cx="133.38" cy="19.99" r="6.67"/> 
            <circle cx="142.25" cy="34.83" r="6.67"/> 
            <circle cx="151.26" cy="49.80" r="6.67"/> 
            <circle cx="151.79" cy="15.74" r="6.67"/> 
            <circle cx="160.47" cy="64.98" r="6.67"/> 
            <circle cx="160.97" cy="31.21" r="6.67"/> 
            <circle cx="170.46" cy="97.21" r="6.67"/> 
            <circle cx="169.99" cy="80.50" r="6.67"/> 
            <circle cx="170.35" cy="47.02" r="6.67"/> 
            <circle cx="170.56" cy="13.60" r="6.67"/> 
            <circle cx="180.00" cy="30.00" r="6.67"/> 
            <circle cx="180.00" cy="63.33" r="6.67"/> 
            <circle cx="189.44" cy="13.60" r="6.67"/> 
            <circle cx="189.65" cy="47.02" r="6.67"/> 
            <circle cx="190.01" cy="80.50" r="6.67"/> 
            <circle cx="189.54" cy="97.21" r="6.67"/> 
            <circle cx="199.03" cy="31.21" r="6.67"/> 
            <circle cx="199.53" cy="64.98" r="6.67"/> 
            <circle cx="208.21" cy="15.74" r="6.67"/> 
            <circle cx="208.74" cy="49.80" r="6.67"/> 
            <circle cx="217.75" cy="34.83" r="6.67"/> 
            <circle cx="226.62" cy="19.99" r="6.67"/> 
            <circle cx="209.63" cy="84.49" r="6.67"/> 
            <circle cx="218.51" cy="69.87" r="6.67"/> 
            <circle cx="208.11" cy="101.55" r="6.67"/> 
            <circle cx="227.23" cy="55.31" r="6.67"/> 
            <circle cx="235.86" cy="40.79" r="6.67"/> 
            <circle cx="244.42" cy="26.29" r="6.67"/> 
            <circle cx="228.06" cy="92.31" r="6.67"/> 
            <circle cx="236.40" cy="77.87" r="6.67"/> 
            <circle cx="244.73" cy="63.44" r="6.67"/> 
            <circle cx="253.07" cy="49.00" r="6.67"/> 
            <circle cx="261.40" cy="34.56" r="6.67"/> 
            <circle cx="225.21" cy="110.00" r="6.67"/> 
            <circle cx="277.34" cy="44.71" r="6.67"/> 
            <circle cx="269.10" cy="59.33" r="6.67"/> 
            <circle cx="260.88" cy="74.00" r="6.67"/> 
            <circle cx="252.70" cy="88.75" r="6.67"/> 
            <circle cx="244.57" cy="103.64" r="6.67"/> 
            <circle cx="292.02" cy="56.59" r="6.67"/> 
            <circle cx="283.68" cy="71.60" r="6.67"/> 
            <circle cx="275.33" cy="86.78" r="6.67"/> 
            <circle cx="239.94" cy="122.11" r="6.67"/> 
            <circle cx="266.95" cy="102.21" r="6.67"/> 
            <circle cx="305.26" cy="70.06" r="6.67"/> 
            <circle cx="296.60" cy="85.63" r="6.67"/> 
            <circle cx="258.49" cy="118.04" r="6.67"/> 
            <circle cx="287.79" cy="101.52" r="6.67"/> 
            <circle cx="316.90" cy="84.94" r="6.67"/> 
            <circle cx="278.74" cy="117.86" r="6.67"/> 
            <circle cx="307.63" cy="101.19" r="6.67"/> 
            <circle cx="251.53" cy="137.25" r="6.67"/> 
            <circle cx="326.78" cy="101.04" r="6.67"/> 
            <circle cx="297.99" cy="117.90" r="6.67"/> 
            <circle cx="269.26" cy="134.91" r="6.67"/> 
            <circle cx="316.59" cy="118.01" r="6.67"/> 
            <circle cx="287.75" cy="135.27" r="6.67"/> 
            <circle cx="334.77" cy="118.15" r="6.67"/> 
            <circle cx="305.72" cy="135.58" r="6.67"/> 
            <circle cx="259.38" cy="154.64" r="6.67"/> 
            <circle cx="323.35" cy="135.84" r="6.67"/> 
            <circle cx="276.45" cy="153.60" r="6.67"/> 
            <circle cx="340.77" cy="136.06" r="6.67"/> 
            <circle cx="293.72" cy="153.94" r="6.67"/> 
            <circle cx="310.81" cy="154.19" r="6.67"/> 
            <circle cx="327.80" cy="154.38" r="6.67"/> 
            <circle cx="344.71" cy="154.54" r="6.67"/> 
            <circle cx="263.07" cy="173.35" r="6.67"/> 
            <circle cx="279.78" cy="173.34" r="6.67"/> 
            <circle cx="296.48" cy="173.34" r="6.67"/> 
            <circle cx="313.17" cy="173.34" r="6.67"/> 
            <circle cx="329.85" cy="173.34" r="6.67"/> 
            <circle cx="346.53" cy="173.34" r="6.67"/> 
        </g>
        <g style="fill:#808080; stroke-width:0.00; stroke:#000000" 
           id="3_Vacant"> 
            <title>b'Vacant'</title>        </g>
    </g>
</svg>
