<?xml version="1.0" encoding="UTF-8" standalone="no"?>
<svg xmlns:svg="http://www.w3.org/2000/svg"
     xmlns="http://www.w3.org/2000/svg" version="1.1"
     width="360" height="185">
    <!-- Created with the Wikimedia parliament diagram creator (http://parliamentdiagram.toolforge.org/parliamentinputform.html) -->
    <g>
        <text x="175" y="175" 
              style="font-size:36px;font-weight:bold;text-align:center;text-anchor:middle;font-family:sans-serif">
            31
        </text>
        <g style="fill:#4165d2; stroke-width:0.00; stroke:#000000" 
           id="0_Democrat"> 
            <title>b'Democrat'</title>            <circle cx="22.23" cy="166.70" r="13.33"/> 
            <circle cx="55.71" cy="166.72" r="13.33"/> 
            <circle cx="89.29" cy="166.76" r="13.33"/> 
            <circle cx="31.51" cy="125.05" r="13.33"/> 
            <circle cx="64.83" cy="131.40" r="13.33"/> 
            <circle cx="101.96" cy="131.91" r="13.33"/> 
            <circle cx="51.57" cy="87.40" r="13.33"/> 
            <circle cx="83.77" cy="100.22" r="13.33"/> 
            <circle cx="80.96" cy="56.46" r="13.33"/> 
            <circle cx="127.41" cy="104.92" r="13.33"/> 
            <circle cx="110.90" cy="75.84" r="13.33"/> 
            <circle cx="117.55" cy="34.50" r="13.33"/> 
            <circle cx="143.91" cy="60.32" r="13.33"/> 
        </g>
        <g style="fill:#e3bb1c; stroke-width:0.00; stroke:#000000" 
           id="1_Other"> 
            <title>b'Other'</title>        </g>
        <g style="fill:#dc3d3d; stroke-width:0.00; stroke:#000000" 
           id="2_Republican"> 
            <title>b'Republican'</title>            <circle cx="161.46" cy="90.23" r="13.33"/> 
            <circle cx="158.67" cy="23.11" r="13.33"/> 
            <circle cx="180.00" cy="55.00" r="13.33"/> 
            <circle cx="201.33" cy="23.11" r="13.33"/> 
            <circle cx="198.54" cy="90.23" r="13.33"/> 
            <circle cx="216.09" cy="60.32" r="13.33"/> 
            <circle cx="242.45" cy="34.50" r="13.33"/> 
            <circle cx="249.10" cy="75.84" r="13.33"/> 
            <circle cx="232.59" cy="104.92" r="13.33"/> 
            <circle cx="279.04" cy="56.46" r="13.33"/> 
            <circle cx="276.23" cy="100.22" r="13.33"/> 
            <circle cx="308.43" cy="87.40" r="13.33"/> 
            <circle cx="258.04" cy="131.91" r="13.33"/> 
            <circle cx="295.17" cy="131.40" r="13.33"/> 
            <circle cx="328.49" cy="125.05" r="13.33"/> 
            <circle cx="270.71" cy="166.76" r="13.33"/> 
            <circle cx="304.29" cy="166.72" r="13.33"/> 
            <circle cx="337.77" cy="166.70" r="13.33"/> 
        </g>
        <g style="fill:#808080; stroke-width:0.00; stroke:#000000" 
           id="3_Vacant"> 
            <title>b'Vacant'</title>        </g>
    </g>
</svg>
