<?xml version="1.0" encoding="UTF-8" standalone="no"?>
<svg xmlns:svg="http://www.w3.org/2000/svg"
     xmlns="http://www.w3.org/2000/svg" version="1.1"
     width="360" height="185">
    <!-- Created with the Wikimedia parliament diagram creator (http://parliamentdiagram.toolforge.org/parliamentinputform.html) -->
    <g>
        <text x="175" y="175" 
              style="font-size:36px;font-weight:bold;text-align:center;text-anchor:middle;font-family:sans-serif">
            30
        </text>
        <g style="fill:#4165d2; stroke-width:0.00; stroke:#000000" 
           id="0_Democrat"> 
            <title>b'Democrat'</title>            <circle cx="22.23" cy="166.70" r="13.33"/> 
            <circle cx="55.71" cy="166.72" r="13.33"/> 
        </g>
        <g style="fill:#e3bb1c; stroke-width:0.00; stroke:#000000" 
           id="1_Other"> 
            <title>b'Other'</title>        </g>
        <g style="fill:#dc3d3d; stroke-width:0.00; stroke:#000000" 
           id="2_Republican"> 
            <title>b'Republican'</title>            <circle cx="89.29" cy="166.76" r="13.33"/> 
            <circle cx="30.31" cy="128.41" r="13.33"/> 
            <circle cx="66.48" cy="127.68" r="13.33"/> 
            <circle cx="47.53" cy="93.27" r="13.33"/> 
            <circle cx="105.41" cy="126.72" r="13.33"/> 
            <circle cx="89.16" cy="94.13" r="13.33"/> 
            <circle cx="72.85" cy="63.43" r="13.33"/> 
            <circle cx="104.71" cy="40.71" r="13.33"/> 
            <circle cx="121.38" cy="69.60" r="13.33"/> 
            <circle cx="138.05" cy="98.49" r="13.33"/> 
            <circle cx="141.17" cy="26.50" r="13.33"/> 
            <circle cx="159.75" cy="56.65" r="13.33"/> 
            <circle cx="180.00" cy="88.33" r="13.33"/> 
            <circle cx="180.00" cy="21.67" r="13.33"/> 
            <circle cx="200.25" cy="56.65" r="13.33"/> 
            <circle cx="218.83" cy="26.50" r="13.33"/> 
            <circle cx="221.95" cy="98.49" r="13.33"/> 
            <circle cx="238.62" cy="69.60" r="13.33"/> 
            <circle cx="255.29" cy="40.71" r="13.33"/> 
            <circle cx="287.15" cy="63.43" r="13.33"/> 
            <circle cx="270.84" cy="94.13" r="13.33"/> 
            <circle cx="254.59" cy="126.72" r="13.33"/> 
            <circle cx="312.47" cy="93.27" r="13.33"/> 
            <circle cx="293.52" cy="127.68" r="13.33"/> 
            <circle cx="329.69" cy="128.41" r="13.33"/> 
            <circle cx="270.71" cy="166.76" r="13.33"/> 
            <circle cx="304.29" cy="166.72" r="13.33"/> 
            <circle cx="337.77" cy="166.70" r="13.33"/> 
        </g>
        <g style="fill:#808080; stroke-width:0.00; stroke:#000000" 
           id="3_Vacant"> 
            <title>b'Vacant'</title>        </g>
    </g>
</svg>
