<?xml version="1.0" encoding="UTF-8" standalone="no"?>
<svg xmlns:svg="http://www.w3.org/2000/svg"
     xmlns="http://www.w3.org/2000/svg" version="1.1"
     width="360" height="185">
    <!-- Created with the Wikimedia parliament diagram creator (http://parliamentdiagram.toolforge.org/parliamentinputform.html) -->
    <g>
        <text x="175" y="175" 
              style="font-size:36px;font-weight:bold;text-align:center;text-anchor:middle;font-family:sans-serif">
            203
        </text>
        <g style="fill:#4165d2; stroke-width:0.00; stroke:#000000" 
           id="0_Democrat"> 
            <title>b'Democrat'</title>            <circle cx="11.32" cy="175.00" r="5.00"/> 
            <circle cx="23.83" cy="175.00" r="5.00"/> 
            <circle cx="36.34" cy="175.00" r="5.00"/> 
            <circle cx="48.85" cy="175.00" r="5.00"/> 
            <circle cx="61.36" cy="175.00" r="5.00"/> 
            <circle cx="73.87" cy="175.00" r="5.00"/> 
            <circle cx="86.38" cy="175.00" r="5.00"/> 
            <circle cx="98.90" cy="175.01" r="5.00"/> 
            <circle cx="12.47" cy="159.75" r="5.00"/> 
            <circle cx="25.09" cy="159.55" r="5.00"/> 
            <circle cx="37.75" cy="159.30" r="5.00"/> 
            <circle cx="50.34" cy="159.61" r="5.00"/> 
            <circle cx="63.06" cy="159.32" r="5.00"/> 
            <circle cx="75.86" cy="158.95" r="5.00"/> 
            <circle cx="14.99" cy="144.67" r="5.00"/> 
            <circle cx="88.55" cy="159.37" r="5.00"/> 
            <circle cx="27.88" cy="144.29" r="5.00"/> 
            <circle cx="40.87" cy="143.85" r="5.00"/> 
            <circle cx="101.54" cy="158.90" r="5.00"/> 
            <circle cx="53.64" cy="144.50" r="5.00"/> 
            <circle cx="18.87" cy="129.87" r="5.00"/> 
            <circle cx="66.84" cy="144.01" r="5.00"/> 
            <circle cx="32.17" cy="129.39" r="5.00"/> 
            <circle cx="80.26" cy="143.39" r="5.00"/> 
            <circle cx="45.66" cy="128.83" r="5.00"/> 
            <circle cx="93.31" cy="144.31" r="5.00"/> 
            <circle cx="58.70" cy="129.88" r="5.00"/> 
            <circle cx="24.07" cy="115.49" r="5.00"/> 
            <circle cx="37.92" cy="114.99" r="5.00"/> 
            <circle cx="72.61" cy="129.32" r="5.00"/> 
            <circle cx="107.34" cy="143.64" r="5.00"/> 
            <circle cx="52.07" cy="114.43" r="5.00"/> 
            <circle cx="30.55" cy="101.64" r="5.00"/> 
            <circle cx="86.97" cy="128.67" r="5.00"/> 
            <circle cx="65.43" cy="115.96" r="5.00"/> 
            <circle cx="45.06" cy="101.23" r="5.00"/> 
            <circle cx="100.53" cy="130.27" r="5.00"/> 
            <circle cx="38.26" cy="88.43" r="5.00"/> 
            <circle cx="80.27" cy="115.54" r="5.00"/> 
            <circle cx="60.02" cy="100.82" r="5.00"/> 
            <circle cx="73.76" cy="102.93" r="5.00"/> 
            <circle cx="53.53" cy="88.24" r="5.00"/> 
            <circle cx="95.84" cy="115.15" r="5.00"/> 
            <circle cx="47.13" cy="75.97" r="5.00"/> 
            <circle cx="116.07" cy="129.85" r="5.00"/> 
            <circle cx="69.41" cy="88.16" r="5.00"/> 
            <circle cx="89.69" cy="102.89" r="5.00"/> 
            <circle cx="63.25" cy="76.16" r="5.00"/> 
            <circle cx="110.00" cy="117.64" r="5.00"/> 
            <circle cx="83.56" cy="90.97" r="5.00"/> 
            <circle cx="57.09" cy="64.37" r="5.00"/> 
            <circle cx="80.14" cy="76.60" r="5.00"/> 
            <circle cx="106.66" cy="103.12" r="5.00"/> 
            <circle cx="74.11" cy="65.10" r="5.00"/> 
            <circle cx="100.71" cy="91.60" r="5.00"/> 
            <circle cx="68.06" cy="53.72" r="5.00"/> 
            <circle cx="94.71" cy="80.24" r="5.00"/> 
            <circle cx="127.39" cy="118.08" r="5.00"/> 
            <circle cx="121.46" cy="106.78" r="5.00"/> 
            <circle cx="92.06" cy="66.29" r="5.00"/> 
            <circle cx="86.02" cy="55.17" r="5.00"/> 
            <circle cx="79.96" cy="44.10" r="5.00"/> 
            <circle cx="119.18" cy="92.88" r="5.00"/> 
            <circle cx="113.13" cy="81.87" r="5.00"/> 
            <circle cx="107.03" cy="70.90" r="5.00"/> 
            <circle cx="105.04" cy="57.34" r="5.00"/> 
            <circle cx="98.86" cy="46.47" r="5.00"/> 
            <circle cx="92.67" cy="35.60" r="5.00"/> 
            <circle cx="134.58" cy="97.99" r="5.00"/> 
            <circle cx="140.83" cy="108.82" r="5.00"/> 
            <circle cx="120.37" cy="63.08" r="5.00"/> 
            <circle cx="126.72" cy="73.87" r="5.00"/> 
            <circle cx="133.10" cy="84.66" r="5.00"/> 
            <circle cx="106.10" cy="28.29" r="5.00"/> 
            <circle cx="112.49" cy="39.08" r="5.00"/> 
            <circle cx="118.92" cy="49.87" r="5.00"/> 
            <circle cx="120.14" cy="22.22" r="5.00"/> 
            <circle cx="134.54" cy="56.87" r="5.00"/> 
            <circle cx="126.79" cy="33.09" r="5.00"/> 
            <circle cx="148.98" cy="91.53" r="5.00"/> 
            <circle cx="141.26" cy="67.75" r="5.00"/> 
            <circle cx="133.53" cy="43.97" r="5.00"/> 
            <circle cx="148.12" cy="78.65" r="5.00"/> 
            <circle cx="155.84" cy="102.42" r="5.00"/> 
            <circle cx="134.67" cy="17.45" r="5.00"/> 
            <circle cx="141.62" cy="28.54" r="5.00"/> 
            <circle cx="149.34" cy="52.38" r="5.00"/> 
            <circle cx="148.71" cy="39.70" r="5.00"/> 
            <circle cx="156.48" cy="63.60" r="5.00"/> 
            <circle cx="149.57" cy="14.02" r="5.00"/> 
        </g>
        <g style="fill:#e3bb1c; stroke-width:0.00; stroke:#000000" 
           id="1_Other"> 
            <title>b'Other'</title>        </g>
        <g style="fill:#808080; stroke-width:0.00; stroke:#000000" 
           id="2_Vacant"> 
            <title>b'Vacant'</title>        </g>
        <g style="fill:#dc3d3d; stroke-width:0.00; stroke:#000000" 
           id="3_Republican"> 
            <title>b'Republican'</title>            <circle cx="164.27" cy="87.58" r="5.00"/> 
            <circle cx="163.87" cy="74.98" r="5.00"/> 
            <circle cx="156.82" cy="25.48" r="5.00"/> 
            <circle cx="164.56" cy="49.66" r="5.00"/> 
            <circle cx="164.26" cy="37.11" r="5.00"/> 
            <circle cx="171.84" cy="99.16" r="5.00"/> 
            <circle cx="164.72" cy="11.94" r="5.00"/> 
            <circle cx="172.11" cy="61.51" r="5.00"/> 
            <circle cx="172.25" cy="23.94" r="5.00"/> 
            <circle cx="180.00" cy="11.25" r="5.00"/> 
            <circle cx="180.00" cy="36.25" r="5.00"/> 
            <circle cx="180.00" cy="73.75" r="5.00"/> 
            <circle cx="180.00" cy="86.25" r="5.00"/> 
            <circle cx="180.00" cy="48.75" r="5.00"/> 
            <circle cx="187.75" cy="23.94" r="5.00"/> 
            <circle cx="187.89" cy="61.51" r="5.00"/> 
            <circle cx="195.28" cy="11.94" r="5.00"/> 
            <circle cx="188.16" cy="99.16" r="5.00"/> 
            <circle cx="195.74" cy="37.11" r="5.00"/> 
            <circle cx="195.44" cy="49.66" r="5.00"/> 
            <circle cx="203.18" cy="25.48" r="5.00"/> 
            <circle cx="196.13" cy="74.98" r="5.00"/> 
            <circle cx="195.73" cy="87.58" r="5.00"/> 
            <circle cx="210.43" cy="14.02" r="5.00"/> 
            <circle cx="203.52" cy="63.60" r="5.00"/> 
            <circle cx="211.29" cy="39.70" r="5.00"/> 
            <circle cx="210.66" cy="52.38" r="5.00"/> 
            <circle cx="218.38" cy="28.54" r="5.00"/> 
            <circle cx="225.33" cy="17.45" r="5.00"/> 
            <circle cx="204.16" cy="102.42" r="5.00"/> 
            <circle cx="211.88" cy="78.65" r="5.00"/> 
            <circle cx="226.47" cy="43.97" r="5.00"/> 
            <circle cx="218.74" cy="67.75" r="5.00"/> 
            <circle cx="211.02" cy="91.53" r="5.00"/> 
            <circle cx="233.21" cy="33.09" r="5.00"/> 
            <circle cx="225.46" cy="56.87" r="5.00"/> 
            <circle cx="239.86" cy="22.22" r="5.00"/> 
            <circle cx="241.08" cy="49.87" r="5.00"/> 
            <circle cx="247.51" cy="39.08" r="5.00"/> 
            <circle cx="253.90" cy="28.29" r="5.00"/> 
            <circle cx="226.90" cy="84.66" r="5.00"/> 
            <circle cx="233.28" cy="73.87" r="5.00"/> 
            <circle cx="239.63" cy="63.08" r="5.00"/> 
            <circle cx="219.17" cy="108.82" r="5.00"/> 
            <circle cx="225.42" cy="97.99" r="5.00"/> 
            <circle cx="267.33" cy="35.60" r="5.00"/> 
            <circle cx="261.14" cy="46.47" r="5.00"/> 
            <circle cx="254.96" cy="57.34" r="5.00"/> 
            <circle cx="252.97" cy="70.90" r="5.00"/> 
            <circle cx="246.87" cy="81.87" r="5.00"/> 
            <circle cx="240.82" cy="92.88" r="5.00"/> 
            <circle cx="280.04" cy="44.10" r="5.00"/> 
            <circle cx="273.98" cy="55.17" r="5.00"/> 
            <circle cx="267.94" cy="66.29" r="5.00"/> 
            <circle cx="238.54" cy="106.78" r="5.00"/> 
            <circle cx="232.61" cy="118.08" r="5.00"/> 
            <circle cx="265.29" cy="80.24" r="5.00"/> 
            <circle cx="291.94" cy="53.72" r="5.00"/> 
            <circle cx="259.29" cy="91.60" r="5.00"/> 
            <circle cx="285.89" cy="65.10" r="5.00"/> 
            <circle cx="253.34" cy="103.12" r="5.00"/> 
            <circle cx="279.86" cy="76.60" r="5.00"/> 
            <circle cx="302.91" cy="64.37" r="5.00"/> 
            <circle cx="276.44" cy="90.97" r="5.00"/> 
            <circle cx="250.00" cy="117.64" r="5.00"/> 
            <circle cx="296.75" cy="76.16" r="5.00"/> 
            <circle cx="270.31" cy="102.89" r="5.00"/> 
            <circle cx="290.59" cy="88.16" r="5.00"/> 
            <circle cx="243.93" cy="129.85" r="5.00"/> 
            <circle cx="312.87" cy="75.97" r="5.00"/> 
            <circle cx="264.16" cy="115.15" r="5.00"/> 
            <circle cx="306.47" cy="88.24" r="5.00"/> 
            <circle cx="286.24" cy="102.93" r="5.00"/> 
            <circle cx="299.98" cy="100.82" r="5.00"/> 
            <circle cx="279.73" cy="115.54" r="5.00"/> 
            <circle cx="321.74" cy="88.43" r="5.00"/> 
            <circle cx="259.47" cy="130.27" r="5.00"/> 
            <circle cx="314.94" cy="101.23" r="5.00"/> 
            <circle cx="294.57" cy="115.96" r="5.00"/> 
            <circle cx="273.03" cy="128.67" r="5.00"/> 
            <circle cx="329.45" cy="101.64" r="5.00"/> 
            <circle cx="307.93" cy="114.43" r="5.00"/> 
            <circle cx="252.66" cy="143.64" r="5.00"/> 
            <circle cx="287.39" cy="129.32" r="5.00"/> 
            <circle cx="322.08" cy="114.99" r="5.00"/> 
            <circle cx="335.93" cy="115.49" r="5.00"/> 
            <circle cx="301.30" cy="129.88" r="5.00"/> 
            <circle cx="266.69" cy="144.31" r="5.00"/> 
            <circle cx="314.34" cy="128.83" r="5.00"/> 
            <circle cx="279.74" cy="143.39" r="5.00"/> 
            <circle cx="327.83" cy="129.39" r="5.00"/> 
            <circle cx="293.16" cy="144.01" r="5.00"/> 
            <circle cx="341.13" cy="129.87" r="5.00"/> 
            <circle cx="306.36" cy="144.50" r="5.00"/> 
            <circle cx="258.46" cy="158.90" r="5.00"/> 
            <circle cx="319.13" cy="143.85" r="5.00"/> 
            <circle cx="332.12" cy="144.29" r="5.00"/> 
            <circle cx="271.45" cy="159.37" r="5.00"/> 
            <circle cx="345.01" cy="144.67" r="5.00"/> 
            <circle cx="284.14" cy="158.95" r="5.00"/> 
            <circle cx="296.94" cy="159.32" r="5.00"/> 
            <circle cx="309.66" cy="159.61" r="5.00"/> 
            <circle cx="322.25" cy="159.30" r="5.00"/> 
            <circle cx="334.91" cy="159.55" r="5.00"/> 
            <circle cx="347.53" cy="159.75" r="5.00"/> 
            <circle cx="261.10" cy="175.01" r="5.00"/> 
            <circle cx="273.62" cy="175.00" r="5.00"/> 
            <circle cx="286.13" cy="175.00" r="5.00"/> 
            <circle cx="298.64" cy="175.00" r="5.00"/> 
            <circle cx="311.15" cy="175.00" r="5.00"/> 
            <circle cx="323.66" cy="175.00" r="5.00"/> 
            <circle cx="336.17" cy="175.00" r="5.00"/> 
            <circle cx="348.68" cy="175.00" r="5.00"/> 
        </g>
    </g>
</svg>
