<?xml version="1.0" encoding="UTF-8" standalone="no"?>
<svg xmlns:svg="http://www.w3.org/2000/svg"
     xmlns="http://www.w3.org/2000/svg" version="1.1"
     width="360" height="185">
    <!-- Created with the Wikimedia parliament diagram creator (http://parliamentdiagram.toolforge.org/parliamentinputform.html) -->
    <g>
        <text x="175" y="175" 
              style="font-size:36px;font-weight:bold;text-align:center;text-anchor:middle;font-family:sans-serif">
            34
        </text>
        <g style="fill:#4165d2; stroke-width:0.00; stroke:#000000" 
           id="0_Democrat"> 
            <title>b'Democrat'</title>            <circle cx="17.81" cy="170.01" r="10.00"/> 
            <circle cx="42.86" cy="170.02" r="10.00"/> 
            <circle cx="67.94" cy="170.03" r="10.00"/> 
            <circle cx="93.07" cy="170.04" r="10.00"/> 
            <circle cx="26.58" cy="126.43" r="10.00"/> 
            <circle cx="56.02" cy="120.54" r="10.00"/> 
            <circle cx="86.07" cy="118.09" r="10.00"/> 
            <circle cx="46.84" cy="86.86" r="10.00"/> 
            <circle cx="112.89" cy="123.85" r="10.00"/> 
            <circle cx="86.37" cy="79.31" r="10.00"/> 
            <circle cx="77.06" cy="54.26" r="10.00"/> 
        </g>
        <g style="fill:#e3bb1c; stroke-width:0.00; stroke:#000000" 
           id="1_Other"> 
            <title>b'Other'</title>        </g>
        <g style="fill:#808080; stroke-width:0.00; stroke:#000000" 
           id="2_Vacant"> 
            <title>b'Vacant'</title>        </g>
        <g style="fill:#dc3d3d; stroke-width:0.00; stroke:#000000" 
           id="3_Republican"> 
            <title>b'Republican'</title>            <circle cx="126.66" cy="80.95" r="10.00"/> 
            <circle cx="114.98" cy="31.07" r="10.00"/> 
            <circle cx="129.70" cy="52.03" r="10.00"/> 
            <circle cx="154.87" cy="96.19" r="10.00"/> 
            <circle cx="157.77" cy="19.03" r="10.00"/> 
            <circle cx="180.00" cy="67.50" r="10.00"/> 
            <circle cx="180.00" cy="42.50" r="10.00"/> 
            <circle cx="202.23" cy="19.03" r="10.00"/> 
            <circle cx="205.13" cy="96.19" r="10.00"/> 
            <circle cx="230.30" cy="52.03" r="10.00"/> 
            <circle cx="245.02" cy="31.07" r="10.00"/> 
            <circle cx="233.34" cy="80.95" r="10.00"/> 
            <circle cx="282.94" cy="54.26" r="10.00"/> 
            <circle cx="273.63" cy="79.31" r="10.00"/> 
            <circle cx="247.11" cy="123.85" r="10.00"/> 
            <circle cx="313.16" cy="86.86" r="10.00"/> 
            <circle cx="273.93" cy="118.09" r="10.00"/> 
            <circle cx="303.98" cy="120.54" r="10.00"/> 
            <circle cx="333.42" cy="126.43" r="10.00"/> 
            <circle cx="266.93" cy="170.04" r="10.00"/> 
            <circle cx="292.06" cy="170.03" r="10.00"/> 
            <circle cx="317.14" cy="170.02" r="10.00"/> 
            <circle cx="342.19" cy="170.01" r="10.00"/> 
        </g>
    </g>
</svg>
