<?xml version="1.0" encoding="UTF-8" standalone="no"?>
<svg xmlns:svg="http://www.w3.org/2000/svg"
     xmlns="http://www.w3.org/2000/svg" version="1.1"
     width="360" height="185">
    <!-- Created with the Wikimedia parliament diagram creator (http://parliamentdiagram.toolforge.org/parliamentinputform.html) -->
    <g>
        <text x="175" y="175" 
              style="font-size:36px;font-weight:bold;text-align:center;text-anchor:middle;font-family:sans-serif">
            141
        </text>
        <g style="fill:#4165d2; stroke-width:0.00; stroke:#000000" 
           id="0_Democrat"> 
            <title>b'Democrat'</title>            <circle cx="12.24" cy="174.29" r="5.71"/> 
            <circle cx="26.53" cy="174.29" r="5.71"/> 
            <circle cx="40.83" cy="174.29" r="5.71"/> 
            <circle cx="55.13" cy="174.29" r="5.71"/> 
            <circle cx="69.43" cy="174.29" r="5.71"/> 
            <circle cx="83.74" cy="174.29" r="5.71"/> 
            <circle cx="98.06" cy="174.29" r="5.71"/> 
            <circle cx="13.97" cy="155.27" r="5.71"/> 
            <circle cx="28.51" cy="154.78" r="5.71"/> 
            <circle cx="43.13" cy="154.15" r="5.71"/> 
            <circle cx="57.65" cy="154.40" r="5.71"/> 
            <circle cx="72.21" cy="154.73" r="5.71"/> 
            <circle cx="17.86" cy="136.57" r="5.71"/> 
            <circle cx="87.20" cy="153.80" r="5.71"/> 
            <circle cx="32.96" cy="135.67" r="5.71"/> 
            <circle cx="102.02" cy="154.18" r="5.71"/> 
            <circle cx="48.34" cy="134.55" r="5.71"/> 
            <circle cx="63.31" cy="135.17" r="5.71"/> 
            <circle cx="23.84" cy="118.43" r="5.71"/> 
            <circle cx="78.42" cy="135.96" r="5.71"/> 
            <circle cx="39.81" cy="117.30" r="5.71"/> 
            <circle cx="56.33" cy="115.92" r="5.71"/> 
            <circle cx="31.84" cy="101.10" r="5.71"/> 
            <circle cx="94.97" cy="134.52" r="5.71"/> 
            <circle cx="71.98" cy="117.10" r="5.71"/> 
            <circle cx="48.95" cy="99.94" r="5.71"/> 
            <circle cx="110.84" cy="135.68" r="5.71"/> 
            <circle cx="87.87" cy="118.61" r="5.71"/> 
            <circle cx="41.77" cy="84.78" r="5.71"/> 
            <circle cx="66.95" cy="98.64" r="5.71"/> 
            <circle cx="60.22" cy="83.89" r="5.71"/> 
            <circle cx="83.42" cy="100.64" r="5.71"/> 
            <circle cx="106.69" cy="117.36" r="5.71"/> 
            <circle cx="53.48" cy="69.69" r="5.71"/> 
            <circle cx="100.25" cy="103.21" r="5.71"/> 
            <circle cx="79.96" cy="83.09" r="5.71"/> 
            <circle cx="73.45" cy="69.41" r="5.71"/> 
            <circle cx="123.97" cy="119.93" r="5.71"/> 
            <circle cx="66.83" cy="56.03" r="5.71"/> 
            <circle cx="97.35" cy="86.22" r="5.71"/> 
            <circle cx="95.08" cy="69.59" r="5.71"/> 
            <circle cx="121.81" cy="103.11" r="5.71"/> 
            <circle cx="88.41" cy="56.73" r="5.71"/> 
            <circle cx="81.64" cy="43.98" r="5.71"/> 
            <circle cx="115.17" cy="90.25" r="5.71"/> 
            <circle cx="113.40" cy="74.22" r="5.71"/> 
            <circle cx="97.73" cy="33.69" r="5.71"/> 
            <circle cx="104.87" cy="46.06" r="5.71"/> 
            <circle cx="112.01" cy="58.43" r="5.71"/> 
            <circle cx="140.59" cy="107.93" r="5.71"/> 
            <circle cx="132.16" cy="80.16" r="5.71"/> 
            <circle cx="139.64" cy="92.43" r="5.71"/> 
            <circle cx="131.17" cy="64.93" r="5.71"/> 
            <circle cx="114.88" cy="25.29" r="5.71"/> 
            <circle cx="122.55" cy="37.58" r="5.71"/> 
            <circle cx="130.38" cy="49.85" r="5.71"/> 
            <circle cx="132.87" cy="18.89" r="5.71"/> 
            <circle cx="150.67" cy="73.24" r="5.71"/> 
            <circle cx="141.17" cy="31.42" r="5.71"/> 
            <circle cx="159.66" cy="100.42" r="5.71"/> 
            <circle cx="150.19" cy="58.61" r="5.71"/> 
            <circle cx="149.80" cy="44.03" r="5.71"/> 
            <circle cx="159.34" cy="85.81" r="5.71"/> 
            <circle cx="151.48" cy="14.58" r="5.71"/> 
            <circle cx="160.43" cy="27.68" r="5.71"/> 
            <circle cx="170.12" cy="69.73" r="5.71"/> 
            <circle cx="169.98" cy="55.40" r="5.71"/> 
            <circle cx="169.86" cy="41.08" r="5.71"/> 
            <circle cx="170.45" cy="12.41" r="5.71"/> 
            <circle cx="180.00" cy="83.57" r="5.71"/> 
            <circle cx="180.00" cy="97.86" r="5.71"/> 
            <circle cx="180.00" cy="26.43" r="5.71"/> 
            <circle cx="189.55" cy="12.41" r="5.71"/> 
            <circle cx="190.14" cy="41.08" r="5.71"/> 
            <circle cx="190.02" cy="55.40" r="5.71"/> 
            <circle cx="189.88" cy="69.73" r="5.71"/> 
            <circle cx="199.57" cy="27.68" r="5.71"/> 
            <circle cx="208.52" cy="14.58" r="5.71"/> 
            <circle cx="200.66" cy="85.81" r="5.71"/> 
            <circle cx="210.20" cy="44.03" r="5.71"/> 
            <circle cx="209.81" cy="58.61" r="5.71"/> 
            <circle cx="200.34" cy="100.42" r="5.71"/> 
            <circle cx="218.83" cy="31.42" r="5.71"/> 
            <circle cx="209.33" cy="73.24" r="5.71"/> 
            <circle cx="227.13" cy="18.89" r="5.71"/> 
            <circle cx="229.62" cy="49.85" r="5.71"/> 
            <circle cx="237.45" cy="37.58" r="5.71"/> 
            <circle cx="245.12" cy="25.29" r="5.71"/> 
            <circle cx="228.83" cy="64.93" r="5.71"/> 
            <circle cx="220.36" cy="92.43" r="5.71"/> 
            <circle cx="227.84" cy="80.16" r="5.71"/> 
            <circle cx="219.41" cy="107.93" r="5.71"/> 
            <circle cx="247.99" cy="58.43" r="5.71"/> 
            <circle cx="255.13" cy="46.06" r="5.71"/> 
            <circle cx="262.27" cy="33.69" r="5.71"/> 
            <circle cx="246.60" cy="74.22" r="5.71"/> 
            <circle cx="244.83" cy="90.25" r="5.71"/> 
            <circle cx="278.36" cy="43.98" r="5.71"/> 
            <circle cx="271.59" cy="56.73" r="5.71"/> 
        </g>
        <g style="fill:#e3bb1c; stroke-width:0.00; stroke:#000000" 
           id="1_Other"> 
            <title>b'Other'</title>        </g>
        <g style="fill:#808080; stroke-width:0.00; stroke:#000000" 
           id="2_Vacant"> 
            <title>b'Vacant'</title>        </g>
        <g style="fill:#dc3d3d; stroke-width:0.00; stroke:#000000" 
           id="3_Republican"> 
            <title>b'Republican'</title>            <circle cx="238.19" cy="103.11" r="5.71"/> 
            <circle cx="264.92" cy="69.59" r="5.71"/> 
            <circle cx="262.65" cy="86.22" r="5.71"/> 
            <circle cx="293.17" cy="56.03" r="5.71"/> 
            <circle cx="236.03" cy="119.93" r="5.71"/> 
            <circle cx="286.55" cy="69.41" r="5.71"/> 
            <circle cx="280.04" cy="83.09" r="5.71"/> 
            <circle cx="259.75" cy="103.21" r="5.71"/> 
            <circle cx="306.52" cy="69.69" r="5.71"/> 
            <circle cx="253.31" cy="117.36" r="5.71"/> 
            <circle cx="276.58" cy="100.64" r="5.71"/> 
            <circle cx="299.78" cy="83.89" r="5.71"/> 
            <circle cx="293.05" cy="98.64" r="5.71"/> 
            <circle cx="318.23" cy="84.78" r="5.71"/> 
            <circle cx="272.13" cy="118.61" r="5.71"/> 
            <circle cx="249.16" cy="135.68" r="5.71"/> 
            <circle cx="311.05" cy="99.94" r="5.71"/> 
            <circle cx="288.02" cy="117.10" r="5.71"/> 
            <circle cx="265.03" cy="134.52" r="5.71"/> 
            <circle cx="328.16" cy="101.10" r="5.71"/> 
            <circle cx="303.67" cy="115.92" r="5.71"/> 
            <circle cx="320.19" cy="117.30" r="5.71"/> 
            <circle cx="281.58" cy="135.96" r="5.71"/> 
            <circle cx="336.16" cy="118.43" r="5.71"/> 
            <circle cx="296.69" cy="135.17" r="5.71"/> 
            <circle cx="311.66" cy="134.55" r="5.71"/> 
            <circle cx="257.98" cy="154.18" r="5.71"/> 
            <circle cx="327.04" cy="135.67" r="5.71"/> 
            <circle cx="272.80" cy="153.80" r="5.71"/> 
            <circle cx="342.14" cy="136.57" r="5.71"/> 
            <circle cx="287.79" cy="154.73" r="5.71"/> 
            <circle cx="302.35" cy="154.40" r="5.71"/> 
            <circle cx="316.87" cy="154.15" r="5.71"/> 
            <circle cx="331.49" cy="154.78" r="5.71"/> 
            <circle cx="346.03" cy="155.27" r="5.71"/> 
            <circle cx="261.94" cy="174.29" r="5.71"/> 
            <circle cx="276.26" cy="174.29" r="5.71"/> 
            <circle cx="290.57" cy="174.29" r="5.71"/> 
            <circle cx="304.87" cy="174.29" r="5.71"/> 
            <circle cx="319.17" cy="174.29" r="5.71"/> 
            <circle cx="333.47" cy="174.29" r="5.71"/> 
            <circle cx="347.76" cy="174.29" r="5.71"/> 
        </g>
    </g>
</svg>
